<svg xmlns="http://www.w3.org/2000/svg" id="svg7" viewBox="0 0 22 22"><style id="current-color-scheme" type="text/css">.ColorScheme-Text{color:#31363b}</style><g id="zoom-fit-width" transform="rotate(90 320.02 67.485)"><path id="path3823" d="M253.523 366.505v1h20v-1zm10 1-3 3h2v3.188c-1.158.415-2 1.51-2 2.812s.842 2.397 2 2.813v3.187h-2l3 3 3-3h-2v-3.187c1.159-.416 2-1.512 2-2.813s-.841-2.397-2-2.812v-3.188h2zm0 18h-10v1h20v-1zm0-11a2 2 0 1 1 0 4 2 2 0 0 1 0-4" class="ColorScheme-Text" style="fill:currentColor;fill-opacity:1;stroke:none"/><circle id="path3825" cx="11.013" cy="11" r="1" class="ColorScheme-Text" style="fill:currentColor;fill-opacity:1;stroke:none" transform="translate(252.523 365.505)"/><path id="rect3827" d="M.013 0h22v22h-22z" style="fill:#566060;fill-opacity:0;stroke:none" transform="translate(252.523 365.505)"/></g></svg>