<svg viewBox="0 0 22 22" xmlns="http://www.w3.org/2000/svg"><path d="m16.060547 3.0078125c-.070011-.0008681-.143145.0175094-.210938.0605469-.0362.025-.192946.2144618-.347656.4199218l-.283203.3769532-.101562-.0703125c-.14236-.0942-.27788-.1143506-.40625-.0566407-.088701.0398001-.297693.3067776-1.664063 2.1171876-.86231 1.1413199-1.56455 2.0850193-1.5625 2.0996093.002.0122.351487.2855557.773437.6035157l.771485.5820312 1.019531-1.3535156c.56068-.74406 1.025969-1.3443275 1.03711-1.3359375.0362.0271.10119.6107881.08789.7988281-.005.10257-.044184.2859031-.083984.4082031-.0711.21855-.078777.2324225-1.341797 1.9140625-.69851.9296804-1.280526 1.7187704-1.291016 1.7500004-.0301.0861.00356.247313.06836.339843.10874.15601.37799.206483.53125.095703.10588-.076999 2.60784-3.4323114 2.6875-3.6074214.23269-.49937.282298-1.1396212.136718-1.7695312-.0575-.25002-.133451-.4892463-.207031-.6601563-.0214-.0467.014047-.1065418.248047-.4199219.2211-.2991399.271281-.3833774.275391-.4609374.009-.16505-.039452-.2585857-.201172-.3847657l-.152344-.1171875.302734-.4023437c.24618-.33242.296802-.4185538.300782-.4960938.01155-.2472075-.176688-.4290362-.386719-.4316406zm-5.058594 5.5722656c-.007.001-.925869 1.2187019-2.0429686 2.7011719-1.79673 2.38724-2.05289 2.741122-2.21875 3.044922-.32951.60483-.6888544 1.52632-.9277344 2.36914-.15483.540561-.1619456.491484.0527344.376954.66228-.35623 1.52764-.933715 2.03125-1.359375.49244-.41672.5763025-.524322 2.6640626-3.294922l2.007812-2.667969-.777343-.5859375c-.42759-.32221-.781713-.5850144-.789063-.5839844zm.21875 6.1738279c-.098315-.0056-.19983-.001781-.265625.011719-.31107.0659-.656749.335424-.824219.646484-.0449.0808-.117169.262801-.162109.400391-.0418.14053-.0809844.256696-.0839844.259766-.0238.0298-.61875.174495-.96875.234375-.82268.14359-1.0482562.196674-1.1289062.271484-.15854.14653-.0348369.294386.1894531.228516.0599-.018.3132538-.069458.5585937-.111329.2453301-.041799.6196213-.120108.8320313-.167968.2124-.0508.3914706-.083219.4003906-.074219.009.009-.0270844.178516-.0839843.378906l-.1015626.359375-.2246093.09961c-.12267.0538-.297965.146034-.390625.208984-.2812.18546-.3361519.418749-.1386719.568359.10773.0808.4063269.076894.5917969-.003906.16454-.0748.2581887-.178902.3867187-.451172.0688-.14068.1221925-.215529.1640625-.224609.0328999-.009.3291329-.067919.6582029-.136719.32907-.0657.629169-.129742.667969-.138672.0627-.0149.068881-.007972.050781.048828-.012.0359-.066267.139762-.123047.232422-.0567.0927-.101562.203257-.101562.248047 0 .0927.077895.18611.140625.16211.024-.009001.055312-.017579.070312-.017579.0149 0 .082708-.047482.148438-.107421.12267-.110671.417969-.651885.417969-.765626 0-.056799.045365-.072243.072265-.027343.009.0149.077714.042547.152344.060547.10466.0269.134766.047803.134766.095703 0 .0928.152439.226966.287109.253906.10466.018.239213-.0027.382813-.0625.0507-.0209.053056-.0152.035156.0625-.012.0478-.098637.199174-.191406.339844-.197471.29321-.4372.760407-.5.966797-.050701.17654-.028147.308293.064453.371093.0838.0538.221088.030825.292968-.046875.0628-.0688.403707-.79007.529297-1.11914.0898-.2304.130525-.294436.333985-.509766.16761-.17654.221407-.217227.185547-.148437-.0598.12867-.055935.227229.009765.287109.14053.12867.342991.002828.519531-.320312.10467-.19147.183326-.249101.572266-.431641l.203125-.091797-.021484.109375c-.012.0598-.080604.230423-.152344.376953-.14067.29613-.167634.484884-.083985.646484.0567.110671.117379.113169.392579.017579.38294-.12867.883048-.42321 1.011718-.59375.17654-.23933.230637-.470949.123047-.548829-.11066-.080799-.173783-.046183-.314453.160157-.18855.2812-.422084.498705-.646484.609375-.10467.0538-.198092.089078-.207031.080078-.012001-.012.228761-.654891.357421-.957031.027-.0627.046875-.141039.046875-.173829 0-.083799-.105572-.177734-.195312-.177734-.0418 0-.238077.080051-.435547.181641-.40988.20347-.383957.22067-.279297-.16211.0628-.23627.041968-.299523-.101562-.314453-.13761-.0149-.190817.03139-.316407.25586-.0808.15253-.188131.27727-.394531.46875-.27227.25118-.284716.259783-.347656.214843-.0957-.0688-.149493-.059859-.382813.056641-.22734.1136-.302575.129427-.359375.060547-.0478-.0567.02745-.087299.44336-.167969.40387-.0778.455078-.0979.455078-.18164 0-.134671-.111124-.26279-.308594-.34961-.34107-.15252-.379697-.161837-.529297-.123047-.16162.0418-.400804.272416-.433593.416016-.0329.14961-.134766.103923-.134766-.060547 0-.0688-.085013-.241474-.132813-.271484-.10174-.0688-.265025.080268-.390625.355468l-.099609.212891-.220703.046875c-.2872.0628-1.121612.230873-1.232422.251953-.0718.012-.083359.006644-.068359-.035156.012-.0298.047984-.162355.083984-.296875.0927-.37094.119226-.418927.253906-.466797.1616-.0568.705173-.289448.845703-.361328.0659-.0329.200029-.13488.298828-.224609.302141-.281201.350246-.540952.134766-.732422-.0598-.0508-.137958-.106154-.173828-.121094-.055185-.0209-.149732-.035416-.248047-.041016zm-.148437.353516c.15853.009.220685.022312.265625.070312.0598.0598.059659.063995.005859.177735-.0359.0718-.119799.154842-.224609.226562-.18254.12559-.753625.356313-.771485.314453-.024-.0689.158731-.477765.275391-.609375.15561-.17652.200959-.194627.449219-.179687zm-1.6875004 2.501953c.0228175.0015.0233063.021194.0039063.058594-.0389.0748-.1404657.128352-.1972657.107422-.0658-.027-.0479593-.063418.0566407-.117188.0688-.0344.1139012-.050328.1367187-.048828z" fill="#4d4d4d"/></svg>
