<svg enable-background="new 0 0 20 20" viewBox="0 0 20 20" xmlns="http://www.w3.org/2000/svg"><path d="m12.6 7.6v3.9h-1.1v4.6h-3v-4.6h-1.1v-3.9c0-.3.3-.6.6-.6h4c .3 0 .6.3.6.6zm-2.6-1.1c.7 0 1.3-.6 1.3-1.3s-.6-1.3-1.3-1.3-1.3.6-1.3 1.3.6 1.3 1.3 1.3zm9.6 3.5c0 2.7-.9 4.9-2.7 6.7-1.9 1.9-4.2 2.9-6.9 2.9-2.6 0-4.9-.9-6.8-2.8s-2.8-4.1-2.8-6.8c0-2.6.9-4.9 2.8-6.8 1.9-1.9 4.1-2.8 6.8-2.8s5 .9 6.8 2.8c1.9 1.8 2.8 4.1 2.8 6.8zm-1.7 0c0-2.2-.8-4-2.3-5.6-1.6-1.5-3.4-2.3-5.6-2.3s-4 .8-5.5 2.3c-1.6 1.6-2.4 3.5-2.4 5.6s.8 4 2.3 5.5 3.4 2.3 5.6 2.3c2.1 0 4-.8 5.6-2.4 1.5-1.4 2.3-3.2 2.3-5.4z"/></svg>