<svg enable-background="new 0 0 20 20" viewBox="0 0 20 20" xmlns="http://www.w3.org/2000/svg"><path d="m16.8 3.2c-1.8-1.9-4.1-2.8-6.8-2.8s-4.9.9-6.8 2.8-2.8 4.2-2.8 6.8.9 4.9 2.8 6.8 4.1 2.8 6.8 2.8c2.6 0 4.9-1 6.9-2.9 1.8-1.8 2.7-4.1 2.7-6.7 0-2.7-.9-5-2.8-6.8zm-1.2 12.3c-1.6 1.6-3.5 2.4-5.6 2.4s-4-.8-5.6-2.3c-1.5-1.6-2.3-3.5-2.3-5.6 0-.9.1-1.8.4-2.6l2.5 1.1h-.1v1.1h.9v.5.3h-.9v1.1h1c .1.9.5 1.5.9 2.1.9 1.2 2.3 1.8 3.9 1.8 1 0 2-.3 2.5-.6l-.4-1.8c-.3.2-1.1.4-1.8.4-.8 0-1.6-.2-2.1-.8-.2-.3-.4-.6-.5-1.1h3.6l5 2.2c-.4.7-.9 1.3-1.4 1.8zm-3.2-5.8h.1v-1.1h-2.7l-1.1-.5c.1-.2.2-.4.3-.6.5-.6 1.2-.9 2-.9.7 0 1.4.2 1.8.4l.5-1.8c-.6-.3-1.4-.5-2.4-.5-1.6 0-2.9.6-3.8 1.7-.2.2-.4.5-.5.7l-3.2-1.3c.3-.5.7-.9 1.1-1.3 1.5-1.6 3.3-2.4 5.5-2.4s4 .8 5.6 2.3c1.5 1.5 2.3 3.4 2.3 5.6 0 .7-.1 1.4-.2 2z"/></svg>