<svg enable-background="new 0 0 20 20" viewBox="0 0 20 20" xmlns="http://www.w3.org/2000/svg"><path d="m16.8 3.2c-1.8-1.9-4.1-2.8-6.8-2.8s-4.9.9-6.8 2.8-2.8 4.2-2.8 6.8.9 4.9 2.8 6.8 4.1 2.8 6.8 2.8c2.6 0 4.9-1 6.9-2.9 1.8-1.8 2.7-4.1 2.7-6.7 0-2.7-.9-5-2.8-6.8zm-1.2 12.3c-1.6 1.6-3.5 2.4-5.6 2.4s-4-.8-5.6-2.3c-1.5-1.6-2.3-3.5-2.3-5.6s.8-4 2.4-5.6c1.5-1.5 3.3-2.3 5.5-2.3s4 .8 5.6 2.3c1.5 1.5 2.3 3.4 2.3 5.6s-.8 4-2.3 5.5zm-7.5-8.2h-2.6v5.3h1.3v-1.7h1c1.8 0 2.2-1.1 2.2-1.8.1-1.1-.4-1.8-1.9-1.8zm-.2 2.6h-1.1v-1.6h1.1c.6 0 .9.3.9.8 0 .4-.3.8-.9.8zm4.6-2.6h-2.1v5.3h2.1c1.6 0 2.7-.8 2.7-2.7 0-1.8-1.1-2.6-2.7-2.6zm0 4.2h-.8v-3.1h.8c1 0 1.4.7 1.4 1.5 0 .9-.4 1.6-1.4 1.6z"/></svg>