<svg enable-background="new 0 0 20 20" viewBox="0 0 20 20" xmlns="http://www.w3.org/2000/svg"><path d="m16.8 3.2c-1.8-1.9-4.1-2.8-6.8-2.8s-4.9.9-6.8 2.8-2.8 4.2-2.8 6.8.9 4.9 2.8 6.8 4.1 2.8 6.8 2.8c2.6 0 4.9-1 6.9-2.9 1.8-1.8 2.7-4.1 2.7-6.7 0-2.7-.9-5-2.8-6.8zm-1.2 12.3c-1.6 1.6-3.5 2.4-5.6 2.4s-4-.8-5.6-2.3c-1.5-1.6-2.3-3.5-2.3-5.6s.8-4 2.4-5.6c1.5-1.5 3.3-2.3 5.5-2.3s4 .8 5.6 2.3c1.5 1.5 2.3 3.4 2.3 5.6s-.8 4-2.3 5.5zm.7-5.3-1.9-.8v-2.4l-5.9-2.4-2.6 1.1v2.7l0 0-2.3 1v2.5l2.5 1.1 2.5-1h .1l5 2.1h.1.1l2.3-1 .2-.1v-2.7zm-2.7 3.1 0 0 0 0-4.4-1.8v-1.7l4.4 1.8v.1l0 0zm .2-2.2-1.4-.6 1.6-.6 1.4.6zm2.1 1.5-1.7.7v-1.7l1.7-.7z"/></svg>