<?xml version="1.0" encoding="UTF-8" standalone="no"?>
<svg
   xmlns:dc="http://purl.org/dc/elements/1.1/"
   xmlns:cc="http://creativecommons.org/ns#"
   xmlns:rdf="http://www.w3.org/1999/02/22-rdf-syntax-ns#"
   xmlns:svg="http://www.w3.org/2000/svg"
   xmlns="http://www.w3.org/2000/svg"
   xml:space="preserve"
   enable-background="new 0 0 20 20"
   viewBox="0 0 20 20"
   y="0px"
   x="0px"
   id="Creative_Commons_Share"
   version="1.1"><metadata
     id="metadata9"><rdf:RDF><cc:Work
         rdf:about=""><dc:format>image/svg+xml</dc:format><dc:type
           rdf:resource="http://purl.org/dc/dcmitype/StillImage" /><dc:title></dc:title></cc:Work></rdf:RDF></metadata><defs
     id="defs7" /><g
     id="g4137"><path
       d="M 16.8,3.2 C 15,1.3 12.7,0.4 10,0.4 7.3,0.4 5.1,1.3 3.2,3.2 1.3,5.1 0.4,7.4 0.4,10 c 0,2.6 0.9,4.9 2.8,6.8 1.9,1.9 4.1,2.8 6.8,2.8 2.6,0 4.9,-1 6.9,-2.9 1.8,-1.8 2.7,-4.1 2.7,-6.7 0,-2.6 -0.9,-5 -2.8,-6.8 z M 15.6,15.5 C 14,17.1 12.1,17.9 10,17.9 7.9,17.9 6,17.1 4.4,15.6 2.9,14 2.1,12.1 2.1,10 2.1,7.9 2.9,6 4.5,4.4 6,2.9 7.8,2.1 10,2.1 c 2.2,0 4,0.8 5.6,2.3 1.5,1.5 2.3,3.4 2.3,5.6 0,2.2 -0.8,4 -2.3,5.5 z M 14.030695,9.9501199 c 0,2.9000001 -0.893583,5.8031401 -3.893583,5.8031401 -2.1000006,0 -3.8227255,-1.600348 -4.0166747,-4.365475 l 1.7815597,-0.0012 c 0.1,1.3 1.098003,2.306225 2.298003,2.306225 1.4,0 1.904814,-1.813741 1.904814,-3.7137409 0,-2 -0.641925,-3.6137412 -2.041925,-3.6137412 C 8.9628887,6.3652959 8.2604814,7.2 8.0604814,8.5 7.8486948,9.5987467 7.8709891,11.343246 8.0505999,12.207588 L 6.8700245,11.449157 6.1932373,12.066198 C 6.1028743,11.237984 5.9858602,10.664752 6.0371113,9.0742226 6.2,6.5161484 7.7419258,4.2677032 9.8419258,4.2677032 c 3.0000002,0 4.1887692,2.7824167 4.1887692,5.6824167 z"
       id="path3" /><path
       style="display:inline;fill:none;fill-rule:evenodd;stroke:#000000;stroke-width:0.9619261px;stroke-linecap:butt;stroke-linejoin:miter;stroke-opacity:1"
       d="M 8.3932847,12.981242 11.563583,6.7457416"
       id="path4272" /></g></svg>