<?xml version="1.0" encoding="UTF-8" standalone="no"?>
<svg id="svg3049" xmlns:rdf="http://www.w3.org/1999/02/22-rdf-syntax-ns#" xmlns="http://www.w3.org/2000/svg" height="16" viewBox="0 0 16 16" width="16" version="1.1" xmlns:cc="http://creativecommons.org/ns#" xmlns:dc="http://purl.org/dc/elements/1.1/">
 <defs id="defs3051">
  <style id="current-color-scheme" type="text/css">.ColorScheme-Text {
        color:#4d4d4d;
      }
      .ColorScheme-Background {
        color:#eff0f1;
      }
      .ColorScheme-Highlight {
        color:#3daee9;
      }
      .ColorScheme-ViewText {
        color:#31363b;
      }
      .ColorScheme-ViewBackground {
        color:#fcfcfc;
      }
      .ColorScheme-ViewHover {
        color:#93cee9;
      }
      .ColorScheme-ViewFocus{
        color:#3daee9;
      }
      .ColorScheme-ButtonText {
        color:#31363b;
      }
      .ColorScheme-ButtonBackground {
        color:#eff0f1;
      }
      .ColorScheme-ButtonHover {
        color:#93cee9;
      }
      .ColorScheme-ButtonFocus{
        color:#3daee9;
      }</style>
 </defs>
 <g id="layer1" transform="translate(-421.71 -531.79)">
  <path id="path16" d="m429.71 533.79c-1.6568 0-3 1.3432-3 3s1.3432 3 3 3 3-1.3432 3-3-1.3432-3-3-3zm0 7c-2.7614 0-5 2.0147-5 4.5 0.00074 0.16709 0.0118 0.33402 0.0332 0.5h0.96679 0.0449 7.9102 0.0449 0.96289c0.0227-0.16592 0.0351-0.33284 0.0371-0.5 0-2.4853-2.2386-4.5-5-4.5zm0 1c1.9869 0.002 3.6712 1.2793 3.9551 3h-7.9102c0.28384-1.7207 1.9682-2.9983 3.9551-3z" fill="#da4453"/>
  <rect id="rect4168" height="1" width="4" y="536.29" x="427.76" fill="#fff"/>
 </g>
</svg>
