<?xml version="1.0" encoding="UTF-8" standalone="no"?>
<svg id="svg3049" xmlns:rdf="http://www.w3.org/1999/02/22-rdf-syntax-ns#" xmlns="http://www.w3.org/2000/svg" height="16" viewBox="0 0 16 16" width="16" version="1.1" xmlns:cc="http://creativecommons.org/ns#" xmlns:dc="http://purl.org/dc/elements/1.1/">
 <defs id="defs3051">
  <style id="current-color-scheme" type="text/css">.ColorScheme-Text {
        color:#4d4d4d;
      }
      .ColorScheme-Background {
        color:#eff0f1;
      }
      .ColorScheme-Highlight {
        color:#3daee9;
      }
      .ColorScheme-ViewText {
        color:#31363b;
      }
      .ColorScheme-ViewBackground {
        color:#fcfcfc;
      }
      .ColorScheme-ViewHover {
        color:#93cee9;
      }
      .ColorScheme-ViewFocus{
        color:#3daee9;
      }
      .ColorScheme-ButtonText {
        color:#31363b;
      }
      .ColorScheme-ButtonBackground {
        color:#eff0f1;
      }
      .ColorScheme-ButtonHover {
        color:#93cee9;
      }
      .ColorScheme-ButtonFocus{
        color:#3daee9;
      }</style>
 </defs>
 <g id="layer1" transform="translate(-421.71 -531.79)" fill="#43be80">
  <path id="path16" d="m8 9a5 4.5 0 0 0 -5 4.5 5 4.5 0 0 0 0.0332 0.5h0.9668 0.0449 7.9101 0.045 0.963a5 4.5 0 0 0 0.037 -0.5 5 4.5 0 0 0 -5 -4.5zm0 1a4 3.5 0 0 1 3.955 3h-7.9101a4 3.5 0 0 1 3.9551 -3z" transform="translate(421.71 531.79)"/>
  <path id="path4167" d="m8 2c-1.6569 0-3 1.3431-3 3s1.3431 3 3 3 3-1.3431 3-3-1.3431-3-3-3zm1.5918 1.2324l0.7072 0.7071-2.8302 2.8281-1.7676-1.7676 0.707-0.707 1.0606 1.0605 2.123-2.1211z" transform="translate(421.71 531.79)"/>
 </g>
</svg>
