<svg viewBox="0 0 16 16" xmlns="http://www.w3.org/2000/svg"><g fill="#43be80" transform="translate(-421.71 -531.79)"><path d="m8 9a5 4.5 0 0 0 -5 4.5 5 4.5 0 0 0  .0332.5h.9668.0449 7.9101.045.963a5 4.5 0 0 0  .037-.5 5 4.5 0 0 0 -5-4.5zm0 1a4 3.5 0 0 1 3.955 3h-7.9101a4 3.5 0 0 1 3.9551-3z" transform="translate(421.71 531.79)"/><path d="m8 2c-1.6569 0-3 1.3431-3 3s1.3431 3 3 3 3-1.3431 3-3-1.3431-3-3-3zm1.5918 1.2324.7072.7071-2.8302 2.8281-1.7676-1.7676.707-.707 1.0606 1.0605z" transform="translate(421.71 531.79)"/></g></svg>
