<svg viewBox="0 0 16 16" xmlns="http://www.w3.org/2000/svg"><g transform="translate(-421.71 -531.79)"><g fill="#4d4d4d"><text x="413.47781" y="546.64935"><tspan x="413.47781" y="546.64935"/></text><text x="414.21451" y="540.78601"><tspan x="414.21451" y="540.78601"/></text></g><g><text x="420.15027" y="546.54797"><tspan x="420.15027" y="546.54797"/></text><text x="420.88696" y="540.68463"><tspan x="420.88696" y="540.68463"/></text><text x="414.15027" y="547.54797"><tspan x="414.15027" y="547.54797"/></text></g><path d="m431.42 540.82-.70703.70703 1.793 1.793-1.793 1.793.70703.70703 1.793-1.793 1.793 1.793.70703-.70703-1.793-1.793 1.793-1.793-.70703-.70703-1.793 1.793z" fill="#da4453"/><path d="m4 2v1 7 1 1 2l4-1.594v-1l-3 1.188v-1.59-.004-1-7h6v5h1v-5-1h-1-6z" fill="#4d4d4d" transform="translate(421.71 531.79)"/></g></svg>
