<svg viewBox="0 0 16 16" xmlns="http://www.w3.org/2000/svg"><path d="m6 3v1h-4v1h6.0957031c-.366 1.053-.9483747 2.3184067-1.7343747 3.1914068-.507-.562-.9277657-1.179125-1.2597656-1.828125h-1.0917969c.398.889.9449531 1.7302812 1.6269531 2.4882812l-2.7773438 2.738281.7753907.775391 2.7265625-2.7285158 1.6972656 1.6972658.4140625-1.115235-1.3867187-1.3691401.015625-.015625c.9489999-1.059 1.6312966-2.5401255 2.0292966-3.8281255h1.8691406v-1.0058594h-4v-1zm4.453125 4.4531255-2.4550779 6.5468745h1.0917969l.609375-1.636718h2.59375l.615234 1.636718h1.091797l-2.455078-6.5468745zm.544922 1.4570313.884766 2.3632812h-1.769531z" fill="#4d4d4d"/></svg>