<svg viewBox="0 0 16 16" xmlns="http://www.w3.org/2000/svg"><path d="m3.8564 1038.4c-.162.01-.33601 0-.52701.132-1.704.7323-.56108 2.7413 1.611 4.2706.013004-.2881.13307-.9155.13007-1.1916-1.853-1.2688-2.9371-2.504-1.756-2.9937 1.245-.5162 1.6314.8931 1.6534 2.9385.116.12.91959.6531 1.0416.7372-.045-1.8654-1.038-3.7694-1.992-3.8774-.051-.01-.107-.01-.161-.01m1.7348 3.2454-.38773-.1508-.32147.2163-.064748.6807.40605.311.16851.2258c1.25.8283 2.315 1.4663 3.716 1.9933l.87373.1296h.57501c.53001-.3121.214-.4322 2.14-.6722l-2.17.168c-1.674-.6482-3.3823-1.5791-4.9364-2.5947m3.82 2.7152c.25101 0 2.2094-.1697 2.9885-.2417.77102-.1201 1.718-.1561 1.539.7442.204-.4801-.26084-1.2952-.92185-1.4392-1.022-.2281-2.6438.3974-3.2268.5895m.93962.2495c-.30401.1201-.99853.2069-1.3265.3149.46501.2401 2.7997 1.1011 3.7637.921.154 0 .80488-.4676.82088-.8038-.05.6122-2.9041.1561-3.2581-.4441m.63501.011c-.25001-.12-1.4207-.1141-1.6797-.2101-1.4667.5124-3.4394 1.7154-4.8515 2.5268l-.40901.1201c-.078868.5604-.42461.7534-.74002 1.1163l.47801.4802.37401-.6122c1.653-.9963 4.9211-2.606 6.8271-3.3791m-6.8271 3.3791c-.202.12-.39501.2401-.57801.3601-.42401 1.2016-.91802 2.0106-1.39 1.9758.72902.3481 2.2992-1.3673 2.8283-2.9806m-2.8283 2.9806c-1.112-.6602 1.2418-1.8633 1.7688-2.2126.119-.3361-.20631-.893-.10031-1.2892-1.66 1.0324-2.6415 2.5259-2.0845 3.2341.134.1681.27601.2521.41701.2641m1.6156-2.5151c.077302-.3094 1.1027-1.0131 1.2877-1.1212.24809-1.9505.25991-2.1431.47064-3.6594-.126-.12-.90155-.7238-1.0216-.8078-.14892 1.6205-.429 3.8165-.82501 5.2833" fill="#cf000f" transform="translate(0 -1036.4)"/></svg>
