<svg viewBox="0 0 16 16" xmlns="http://www.w3.org/2000/svg"><path d="m2.5 2c-.2761424 0-.5.2238576-.5.5s.2238576.5.5.5.5-.2238576.5-.5-.2238576-.5-.5-.5zm3 0c-.2761424 0-.5.2238576-.5.5s.2238576.5.5.5.5-.2238576.5-.5-.2238576-.5-.5-.5zm7.660156 0-3.4218748 4.3105469c-.6755162-.2568313-1.527173-.3280971-2.7382812-.3105469-1.3557756 1.2930815-2.2492403 1.7091991-5 2v1c2.1137135 3.371692 3.4745763 5 7 5h1c1.073961-1.383805 1.627119-2.389831 2-4v-1c-.441493-.9906076-.841996-1.665396-1.326172-2.1210938l3.326172-4.21875zm-9.160156 2c-.5522847 0-1 .4477153-1 1s.4477153 1 1 1 1-.4477153 1-1-.4477153-1-1-1zm3.5292969 3.1015625c2.1029934.164014 2.6392881.9147038 3.3281251 2.5976563-.572828 1.5466412-.472019 1.9036142-1.5839845 3.2695312-3.1378453-.273835-4.2206695-1.428212-5.9472656-4.1386719 1.7961821-.0733299 2.7822555-.7254496 4.203125-1.7285156z" fill="#4d4d4d"/></svg>
