<svg xmlns="http://www.w3.org/2000/svg" viewBox="0 0 16 16"><path fill="#4d4d4d" d="M8 2a6 6 0 1 0 0 12A6 6 0 0 0 8 2zm0 1c.173 0 .332.014.5.031.04.004.085-.005.125 0 .053.007.104.023.156.031.144.023.267.06.406.094.257.063.511.149.75.25.132.056.25.121.375.188v.031c.029.013.045.067.094.094.018.01.015.022.032.031.028.016.068.034.062.063-.008.04-.066.031-.094.062.004.058-.047.055-.062.094.009.025.058.032.062.062-.005.032-.074.03-.062.063.054.042.105.01.156 0 .112-.014.212-.006.281-.063-.009-.053.1-.045.094-.093.029.02.065.04.094.062-.011.01-.019.026-.031.031-.022.01-.044.02-.063.032l-.094.062c-.023.016-.069.094-.093.094-.029 0-.073-.038-.094-.032-.03.01-.029.051-.063.063-.066.024-.196-.036-.219.063.028.057.138.03.188.062a.31.31 0 0 1 .094.125.59.59 0 0 1 0 .188c-.031.08-.127.063-.219.062h-.063c-.154-.01-.305-.08-.374.031.004.085.018.145 0 .219-.015.054-.097.11-.094.156 0 .024.056.06.062.094.004.018-.008.045 0 .063.026.049.08-.01.125 0 .044.01.094.075.094.125a.26.26 0 0 1-.031.125c-.044.066-.125.057-.188.093-.052.03-.063.105-.094.157-.032.056-.075.076-.062.156a.365.365 0 0 1-.188.187c-.026.012-.068.014-.093.032-.02.014-.035.061-.063.093-.035.04-.075.064-.094.094-.013.023-.016.062-.03.094-.023.042-.066.051-.094.093-.014.02-.018.068-.032.094-.032.058-.068.106-.062.157.005.048.06.05.062.093.003.024-.032.036-.031.063.001.038.028.063.031.093.007.074-.048.106-.062.157-.007.024.006.042 0 .062-.012.037-.062.081-.063.125 0 .031.06.05.063.094.002.029-.037.066-.031.094.01.054.114.114.156.156.057.057.131.096.156.156.021.051.024.15.063.188.028.028.087.032.124.062.036.027.057.033.094.063.061.048.153.163.25.156.051-.01.1-.052.156-.063.06-.01.128-.036.188-.03.046.01.108.034.156.03.05-.01.1-.006.156-.03.1-.044.263-.115.407-.094.11.015.11.138.187.187.088.01.149-.017.219 0 .053.013.12.083.125.125.005.043-.057.098-.062.125-.014.058.009.12 0 .156-.008.03-.033.065-.032.094 0 .026.036.09.063.125.033.042.085.08.125.125.073.084.105.17.156.281.013.028-.012.058 0 .094-.022.168-.078.283-.188.469-.051.06-.126.112-.124.187-.004.18.101.295.093.469-.018.234.018.25 0 .375.079.04.023.167 0 .25-.034.099-.075.122-.093.188.053.023.128.013.187 0l-.094.093a5.16 5.16 0 0 1-.75.625 4.922 4.922 0 0 1-1.718.75A4.96 4.96 0 0 1 8 13c-.19 0-.378-.01-.563-.031-.146-.017-.294-.034-.437-.063-.283-.058-.549-.177-.813-.281-.009-.017-.033-.042-.03-.063.051-.022.149.074.187 0 .019-.034-.025-.121 0-.156.018-.024.119-.024.156-.031.053-.01.126-.017.156-.031.033-.021.069-.095.063-.156-.003-.03-.04-.037-.063-.063-.019-.022.013-.041 0-.063-.024-.034-.083-.042-.093-.093.072-.014.177.06.28.031.05-.014.134-.11.157-.156.007-.014-.008-.045 0-.063.009-.018.028-.052.031-.062.007-.027-.006-.013 0-.031.018-.052.064-.089.094-.126.023-.028.073-.064.094-.093.024-.031.015-.035.031-.063.015-.091-.053-.17-.031-.25.024-.09.163-.146.25-.187.03-.014.068-.023.093-.031.06-.022.132-.043.188-.063.094-.034.11-.102.156-.187.022-.04.059-.096.063-.126.004-.026-.005-.031 0-.062.005-.029-.008-.06 0-.094.01-.043.031-.139.031-.187 0-.04-.03-.058-.031-.094-.007-.13.045-.117.093-.188.025-.035.046-.1.063-.125.081-.12.229-.161.219-.343-.004-.06-.05-.2-.094-.219-.025-.011-.057-.018-.094-.031-.118-.044-.22-.178-.344-.188H7.75c-.048 0-.102-.024-.156-.031-.034-.01-.105.01-.125 0-.031-.015-.038-.077-.063-.094-.02-.014-.062-.02-.093-.031-.05-.018-.068-.059-.125-.063-.018 0-.043.01-.063 0-.031-.01-.065-.013-.094-.03-.036-.023-.078-.032-.093-.063.033-.108-.072-.125-.094-.188-.01-.029.01-.099 0-.125-.013-.037-.053-.063-.094-.094a.373.373 0 0 0-.219-.093c-.046-.01-.101.01-.156 0a.356.356 0 0 1-.188-.094c-.042-.049-.056-.102-.093-.125-.035-.022-.07-.04-.094-.063-.011-.01-.021-.008-.031-.03-.018-.038-.054-.05-.032-.095-.04-.02-.019.039-.062.032-.039-.055-.068-.11-.156-.094-.04.01-.078.093-.125.094-.04 0-.074-.086-.125-.094-.04-.01-.098.036-.125.031-.043-.01-.055-.036-.094-.062-.029-.02-.078-.064-.094-.063-.05 0-.087.1-.156.063-.034-.043.071-.054.031-.094-.03-.029-.038.017-.062.031-.028.018-.063.02-.094.031-.069.026-.134.034-.188.063a.184.184 0 0 0-.093.094c-.023.042-.059.123-.094.125-.042 0-.056-.046-.094-.063-.115-.05-.186.03-.281.031-.088 0-.223-.135-.219-.218.003-.051.025-.125.031-.188.005-.05.062-.11.063-.156.001-.062-.116-.087-.156-.094-.094-.017-.206.042-.313 0-.02-.034.02-.06.031-.094.008-.018-.006-.041 0-.062.013-.032.08-.06.094-.094.011-.026-.01-.06 0-.094.013-.036.06-.067.063-.093.004-.034-.036-.072-.063-.094-.083.01-.14.007-.187.031-.108.05-.079.185-.188.219a.913.913 0 0 1-.125.031c-.018.01-.042-.002-.062 0 .002-.01-.002-.02 0-.031.004-.023.026-.04.031-.063.071-.325.181-.64.313-.937h.03c.039.01.062.06.095.062.092.01.111-.084.187-.125.078.011.117-.01.188 0 .048.01.118.059.156.063.032 0 .032-.035.062-.031.03.01.089.057.094.093.005.045-.044.107-.031.157.047.048.152.065.219.093.044-.037.007-.104 0-.156-.002-.023.002-.073 0-.094-.005-.036-.032-.062-.032-.093 0-.143.123-.194.219-.25.041-.024.089-.076.125-.094.051-.025.083-.007.125-.031.076-.043.129-.108.188-.157.027-.065-.003-.154 0-.218.027-.017.064 0 .093 0 .046-.01.068-.068.094-.094.015-.015.045-.016.063-.031.046-.036.053-.078.093-.094a.26.26 0 0 1 .063-.031c.03-.01.077-.014.125-.032.03-.01.113-.018.125-.03.015-.016-.004-.072 0-.095.024-.112.18-.118.281-.156.07-.026.14-.108.219-.094-.015.054-.076.06-.063.125.017.091.125-.018.157-.03.06-.027.17-.065.25-.095.07-.025.19-.044.125-.125-.055-.01-.077.043-.125.063-.033.01-.035-.028-.063-.031-.027 0-.035.036-.062.031-.027-.01-.059-.06-.063-.094-.011-.084.06-.094.094-.156-.023-.076-.124-.033-.188-.063a.113.113 0 0 1 .094-.093c.043-.01.162.008.188.031.015.013-.023.041 0 .062.026.023.06.01.093 0 .012-.057-.072-.025-.062-.062.068-.044.198-.02.281-.031a.679.679 0 0 0 .156-.063c.04-.023.052-.069.094-.031.012.041-.008.072-.031.094-.077.068-.159.14-.219.218.037.036.094.025.156.032.024.01.069-.005.094 0 .03.01.07-.01.094 0 .042.01.052.093.094.093.068 0 .039-.08 0-.125.012-.047.048-.091.03-.125-.03-.062-.15.019-.155-.062-.004-.05.044-.056.062-.094-.008-.096.073-.1.063-.187-.005-.036-.038-.029-.063-.063-.013-.018-.016-.08-.031-.094-.052-.044-.15-.009-.156-.093-.003-.05.007-.103 0-.157-.007-.05-.05-.208-.094-.218-.056-.012-.09.093-.156.125a.376.376 0 0 1-.157.031c-.024-.01-.06-.016-.062-.063-.004-.042.047-.06.062-.093.004-.008-.002-.02 0-.032.073-.02.145-.045.219-.062.042-.01.083-.023.125-.031.03-.007.064.005.094 0A5.02 5.02 0 0 1 8 3zm-2.031.469c-.032.182-.203.255-.407.25-.046.044-.006.126-.03.187-.022.051-.106.098-.157.094-.037 0-.094-.059-.094-.094 0-.043.069-.044.032-.094.001-.01.02-.02.03-.03.021-.013.043-.02.063-.032.182-.112.367-.193.563-.281zm4.187.187c-.018.01-.015.021-.031.031-.038.024-.065.052-.094.063-.04.015-.088.025-.094.063-.004.03.033.033.032.062-.015.037-.024.049-.032.094.051.083.156-.018.219-.031.028-.01.048-.008.063-.032.017-.027.018-.055.031-.094.014-.041.068-.056.062-.093-.003-.037-.094-.068-.156-.063zm-5.469.625c.048.038.115.12.032.157a.516.516 0 0 1-.157.03c-.01 0-.022-.023-.03-.03.05-.05.102-.109.155-.157zm.188.188c.024 0 .034.06.062.062.027 0 .047-.035.063-.031.042.011.071.094.031.125-.033.01-.038-.035-.062-.031-.068.012-.106.16-.157.156-.048-.01-.08-.121-.03-.156 0-.03-.003-.032 0-.063.014-.018.053-.065.093-.062zm-.25.031c.014 0 .026-.01.031 0-.007.053-.021.069-.062.094-.071.043-.134.096-.157.187-.007.027-.09.1-.125.094-.079-.017.045-.165.063-.188.02-.025.04-.033.062-.062.023-.028.041-.078.063-.094a.246.246 0 0 1 .125-.031zm6.781.156c.079-.01.121.078.156.125a.64.64 0 0 0 .157.125c.028.015.063.049.093.063.065.029.185.123.188.187.001.032-.036.064-.031.094.049.01.093-.076.093-.125.092.13.171.268.25.406.038.066.091.12.126.188-.045.013-.056.02-.063.062-.01.056.021.147-.063.157-.052.01-.114-.046-.187-.063-.03-.01-.07.01-.094 0-.055-.018-.047-.092-.093-.125a.516.516 0 0 0-.157-.063c-.027 0-.034.01-.062 0-.034-.01-.097.014-.125 0a.322.322 0 0 1-.094-.093c-.011-.037.092-.063.094-.094.002-.024-.026-.057-.032-.094-.003-.022.005-.047 0-.062-.006-.026-.052-.03-.093-.032h-.094c-.044 0-.133-.004-.187 0-.034 0-.063-.003-.094 0-.087.01-.151-.01-.219 0a.616.616 0 0 0-.187.063l-.063.031a.41.41 0 0 1-.063.032c-.027.013-.066.054-.093.062-.039.01-.086-.01-.157 0-.05 0-.123-.033-.124-.094-.002-.093.162-.045.25-.062.032-.01.053-.039.093-.063.019-.01.014-.019.031-.031.03-.021.089-.07.094-.094.004-.022-.003-.045 0-.062.004-.021.036-.035.063-.063.042-.042.073-.098.125-.125.035-.018.078-.033.094-.062.003-.032-.002-.033 0-.063A.13.13 0 0 1 11 4.75c.054-.012.093.003.156 0 .027 0 .065.013.094 0 .024-.016.038-.05.062-.063a.255.255 0 0 1 .094-.03zm.563.594h-.125c-.044 0-.099-.023-.125 0 .037.06.104.079.187.094a.194.194 0 0 0 .063-.094zm-6.844-.563h.094c.025 0 .052-.01.062 0-.016.066-.167.056-.219.032.003-.025.031-.028.063-.032zm-.219.125c-.043.032-.087.073-.156.094-.038.012-.087.011-.094-.031-.008-.052.06-.026.094-.031.044-.01.105-.03.156-.032zm6.5 0c-.033.011-.049.084 0 .094.023-.014.038-.05.032-.093-.013-.014-.022-.01-.032 0zm-.062.157c.001.056.011.107 0 .156.032.062.109.01.125-.031.019-.104-.015-.138-.063-.125-.016.01-.045-.013-.062 0zM3.063 7.312c.056.051.088.123.156.157a.468.468 0 0 0 .094.031c.025.01.037-.008.062 0 .053.018.114.043.156.063.064.028.133.124.188.156.003.032-.01.07 0 .093.026.035.052.07.094.094.05.028.076.072.124.094.018.01.037-.01.063 0 .066.02.1.11.156.094.037-.011.026-.058.032-.094.025-.027.054-.063.093-.063.062 0 .071.096.094.157.013.034.053.058.063.094a.943.943 0 0 1 0 .28c-.016.047-.087.044-.125.094-.018.025-.018.077-.032.094-.024.03-.044.035-.062.063a.442.442 0 0 0-.032.062c-.03.064-.087.11-.062.188.01.03.063.057.063.094 0 .043-.087.076-.094.124-.005.036.02.079.031.126.008.034.073.07.094.093.035.04.061.107.093.156.063.098.095.218.157.313.033.049.103.073.125.125.01.026-.01.07 0 .094.036.081.2.179.281.218.038.02.09.012.125.032.053.03.16.109.188.156.024.042.019.152.03.219.016.088-.003.155 0 .25.003.052.032.073.032.125 0 .018.001.074 0 .094-.001.062.005.124 0 .187a.59.59 0 0 0 0 .094c.003.031.03.034.031.062.002.029-.034.071-.031.094.007.063.05.098.063.156.01.046.037.164.03.219-.003.029-.027.061-.03.094-.003.026.003.038 0 .062-.003.023.005.044 0 .063l-.094-.063a5.165 5.165 0 0 1-.75-.625l-.094-.093a5.247 5.247 0 0 1-.5-.626c-.013-.019-.018-.042-.031-.062a4.812 4.812 0 0 1-.438-.813c-.009-.02-.022-.04-.031-.062a5.02 5.02 0 0 1-.281-.969A5.02 5.02 0 0 1 3 8c0-.238.03-.459.062-.688zM5 7.845c.048-.022.039.055 0 .062-.037.01-.036-.044 0-.062z"/></svg>