<?xml version="1.0" encoding="UTF-8" standalone="no"?>
<svg id="svg2" xmlns:rdf="http://www.w3.org/1999/02/22-rdf-syntax-ns#" xmlns="http://www.w3.org/2000/svg" height="22" viewBox="0 0 22 22" width="22" version="1.1" xmlns:cc="http://creativecommons.org/ns#" xmlns:dc="http://purl.org/dc/elements/1.1/">
 <g id="layer1" transform="translate(0 -1030.4)">
  <path id="rect4164" d="m3.5 1033.4c-0.17137 0-0.33535 0.025-0.5 0.049v1.9512c1.108 0 2 0.892 2 2v3 5c0 1.108-0.892 2-2 2v1.9512c0.16465 0.024 0.32863 0.049 0.5 0.049h1.5 4 5c2.77 0 5-2.23 5-5 0-2.2049-1.4229-4.0466-3.3965-4.7148 0.844-0.7 1.396-1.7 1.396-2.8 0-1.939-1.561-3.5-3.5-3.5h-4.5-4-1.5zm5.5 2h2c1.108 0 2 0.892 2 2s-0.892 2-2 2h-2v-4zm0 6h3c1.662 0 3 1.338 3 3s-1.338 3-3 3h-3v-6z" fill="#4d4d4d"/>
 </g>
</svg>
