<?xml version="1.0" encoding="UTF-8" standalone="no"?>
<svg id="svg7384" xmlns:rdf="http://www.w3.org/1999/02/22-rdf-syntax-ns#" xmlns="http://www.w3.org/2000/svg" height="22" width="22" version="1.1" xmlns:cc="http://creativecommons.org/ns#" xmlns:xlink="http://www.w3.org/1999/xlink" xmlns:dc="http://purl.org/dc/elements/1.1/">
 <title id="title9167">Gnome Symbolic Icon Theme</title>
 <g fill="#4d4d4d">
  <rect id="rect4035" height="14.668" width="0" y="-19.665" x="-69.774"/>
  <rect id="rect4035-8" height="14.668" width="0" y="2.9059" x="-62.814"/>
  <rect id="rect4035-0" height="14.668" width="0" y="1.8452" x="-61.001"/>
  <rect id="rect4035-3" height="14.668" width="0" y="-19.665" x="-69.774"/>
  <rect id="rect4035-8-9" height="14.668" width="0" y="2.9059" x="-62.814"/>
  <rect id="rect4035-0-4" height="14.668" width="0" y="1.8452" x="-61.001"/>
  <rect id="rect4035-2" height="14.668" width="0" y="-19.665" x="-69.774"/>
  <rect id="rect4035-8-99" height="14.668" width="0" y="2.9059" x="-62.814"/>
  <rect id="rect4035-0-43" height="14.668" width="0" y="1.8452" x="-61.001"/>
  <rect id="rect4035-3-9" height="14.668" width="0" y="-19.665" x="-69.774"/>
  <rect id="rect4035-8-9-9" height="14.668" width="0" y="2.9059" x="-62.814"/>
  <rect id="rect4035-0-4-4" height="14.668" width="0" y="1.8452" x="-61.001"/>
  <rect id="rect4035-6" height="14.668" width="0" y="-15.883" x="-52.618"/>
  <rect id="rect4035-8-8" height="14.668" width="0" y="6.6872" x="-45.658"/>
  <rect id="rect4035-0-6" height="14.668" width="0" y="5.6264" x="-43.844"/>
  <g id="layer1-1" transform="translate(-551.29 -607.65)">
   <path id="path3454" style="color:#000000;text-indent:0;block-progression:tb;text-decoration-line:none;text-transform:none" d="m563.79 610.65-4 15.754 1 0.24616 4-15.754-1-0.24615z"/>
   <path id="path4224" style="color:#000000;text-indent:0;block-progression:tb;text-decoration-line:none;text-transform:none" d="m566.03 613.65-0.74534 0.70967 3.6646 4.2903-3.6646 4.2903 0.74534 0.70968 3.9752-4.6452 0.27951-0.35485-0.27951-0.35483-3.9752-4.6452z"/>
   <path id="path4224-7" style="color:#000000;text-indent:0;block-progression:tb;text-decoration-line:none;text-transform:none" d="m558.54 613.65 0.74534 0.70967-3.6646 4.2903 3.6646 4.2903-0.74534 0.70968-3.9752-4.6452-0.27951-0.35485 0.27951-0.35483 3.9752-4.6452z"/>
  </g>
 </g>
</svg>
