<svg viewBox="0 0 22 22" xmlns="http://www.w3.org/2000/svg"><g fill="#4d4d4d" transform="matrix(.7793465 0 0 .8201398 -300.99709 -424.18971)"><path d="m388.57 540.8h24v2h-24z" fill-rule="evenodd"/><path d="m408.07 526.8c-.68 2.34-2.348 4.353-3.083 5.965-.257.48-.417 1.016-.417 1.597 0 1.905 1.56 3.438 3.5 3.438s3.5-1.533 3.5-3.438c0-.58-.16-1.118-.417-1.597-.735-1.612-2.403-3.625-3.083-5.965z"/><path d="m402.01 518.71-13.435 13.435v5.6569h5.6568l13.435-13.435zm-.70711 2.1213 4.2426 4.2426-7.0711 7.0711-4.2426-4.2426zm-7.7782 7.7782 4.2426 4.2426-1.4142 1.4142-4.2426-4.2426.70711-.7071zm-2.1213 2.1213 4.2426 4.2426-1.4142 1.4142-4.2426-4.2426z"/></g></svg>
