<?xml version="1.0" encoding="UTF-8" standalone="no"?>
<svg
   xmlns:dc="http://purl.org/dc/elements/1.1/"
   xmlns:cc="http://creativecommons.org/ns#"
   xmlns:rdf="http://www.w3.org/1999/02/22-rdf-syntax-ns#"
   xmlns:svg="http://www.w3.org/2000/svg"
   xmlns="http://www.w3.org/2000/svg"
   xmlns:sodipodi="http://sodipodi.sourceforge.net/DTD/sodipodi-0.dtd"
   xmlns:inkscape="http://www.inkscape.org/namespaces/inkscape"
   height="22"
   viewBox="0 0 22 22"
   width="22"
   id="svg2"
   version="1.1"
   inkscape:version="0.91 r13725"
   sodipodi:docname="highlightcolor.svg">
  <metadata
     id="metadata16">
    <rdf:RDF>
      <cc:Work
         rdf:about="">
        <dc:format>image/svg+xml</dc:format>
        <dc:type
           rdf:resource="http://purl.org/dc/dcmitype/StillImage" />
      </cc:Work>
    </rdf:RDF>
  </metadata>
  <defs
     id="defs14" />
  <sodipodi:namedview
     pagecolor="#ffffff"
     bordercolor="#666666"
     borderopacity="1"
     objecttolerance="10"
     gridtolerance="10"
     guidetolerance="10"
     inkscape:pageopacity="0"
     inkscape:pageshadow="2"
     inkscape:window-width="1280"
     inkscape:window-height="995"
     id="namedview12"
     showgrid="false"
     inkscape:zoom="12.462979"
     inkscape:cx="11"
     inkscape:cy="6.1359171"
     inkscape:window-x="0"
     inkscape:window-y="0"
     inkscape:window-maximized="1"
     inkscape:current-layer="svg2" />
  <g
     transform="matrix(0.7793465,0,0,0.8201398,-300.99709,-424.18971)"
     id="g4"
     style="fill:#4d4d4d">
    <path
       d="m 388.57,540.8 24,0 0,2 -24,0 z"
       id="path6"
       inkscape:connector-curvature="0"
       style="fill-rule:evenodd" />
    <path
       d="m 408.07,526.8 c -0.68,2.34 -2.348,4.353 -3.083,5.965 -0.257,0.48 -0.417,1.016 -0.417,1.597 0,1.905 1.56,3.438 3.5,3.438 1.94,0 3.5,-1.533 3.5,-3.438 0,-0.58 -0.16,-1.118 -0.417,-1.597 -0.735,-1.612 -2.403,-3.625 -3.083,-5.965 z"
       id="path8"
       inkscape:connector-curvature="0" />
    <path
       d="m 402.01,518.71 -13.435,13.435 0,5.6569 5.6568,0 13.435,-13.435 z m -0.70711,2.1213 4.2426,4.2426 -7.0711,7.0711 -4.2426,-4.2426 z m -7.7782,7.7782 4.2426,4.2426 -1.4142,1.4142 -4.2426,-4.2426 0.70711,-0.7071 z m -2.1213,2.1213 4.2426,4.2426 -1.4142,1.4142 -4.2426,-4.2426 z"
       id="path10"
       inkscape:connector-curvature="0" />
  </g>
</svg>
