<?xml version="1.0" encoding="UTF-8" standalone="no"?>
<svg id="svg5453" xmlns:rdf="http://www.w3.org/1999/02/22-rdf-syntax-ns#" xmlns="http://www.w3.org/2000/svg" height="32" viewBox="0 0 32 32" width="32" version="1.1" xmlns:cc="http://creativecommons.org/ns#" xmlns:dc="http://purl.org/dc/elements/1.1/">
 <g id="layer1" fill="#4d4d4d" transform="translate(-384.57 -515.8)">
  <rect id="rect4130" style="color:#000000" fill-rule="evenodd" height="2" width="24" y="540.8" x="388.57"/>
  <path id="path4183" d="m408.07 526.8c-0.68 2.34-2.348 4.353-3.083 5.965-0.257 0.48-0.417 1.016-0.417 1.597 0 1.905 1.56 3.438 3.5 3.438s3.5-1.533 3.5-3.438c0-0.58-0.16-1.118-0.417-1.597-0.735-1.612-2.403-3.625-3.083-5.965z"/>
  <path id="rect4112" d="m402.01 518.71-13.435 13.435v5.6569h5.6568l13.435-13.435zm-0.70711 2.1213 4.2426 4.2426-7.0711 7.0711-4.2426-4.2426zm-7.7782 7.7782 4.2426 4.2426-1.4142 1.4142-4.2426-4.2426 0.70711-0.7071zm-2.1213 2.1213 4.2426 4.2426-1.4142 1.4142-4.2426-4.2426z"/>
 </g>
</svg>
