<?xml version="1.0" encoding="UTF-8" standalone="no"?>
<svg id="svg2" xmlns:rdf="http://www.w3.org/1999/02/22-rdf-syntax-ns#" xmlns="http://www.w3.org/2000/svg" height="22" viewBox="0 0 22 22" width="22" version="1.1" xmlns:cc="http://creativecommons.org/ns#" xmlns:dc="http://purl.org/dc/elements/1.1/">
 <g id="layer1" transform="translate(0 -1030.4)">
  <path id="rect4161" d="m3 7c-0.554 0-1 0.446-1 1v6c0 0.554 0.446 1 1 1h6c0.554 0 1-0.446 1-1v-1h2v1c0 0.554 0.446 1 1 1h6c0.554 0 1-0.446 1-1v-6c0-0.554-0.446-1-1-1h-6c-0.554 0-1 0.446-1 1v1h-2v-1c0-0.554-0.446-1-1-1h-6zm0 1h4 2v1c-0.554 0-1 0.446-1 1v2c0 0.554 0.446 1 1 1v1h-2-4v-6zm10 0h3 3v6h-3-3v-1c0.554 0 1-0.446 1-1v-2c0-0.554-0.446-1-1-1v-1zm-4 2h4v2h-4v-2z" transform="translate(0 1030.4)" fill="#4d4d4d"/>
 </g>
</svg>
