<?xml version="1.0" encoding="UTF-8" standalone="no"?>
<svg id="svg2" xmlns:rdf="http://www.w3.org/1999/02/22-rdf-syntax-ns#" xmlns="http://www.w3.org/2000/svg" height="22" viewBox="0 0 22 22" width="22" version="1.1" xmlns:cc="http://creativecommons.org/ns#" xmlns:dc="http://purl.org/dc/elements/1.1/">
 <g id="layer1" transform="translate(0 -1030.4)">
  <path id="path4174" d="m4 1033.4v1h1v2h-1v1h3v-1h-1v-2h1v-1h-3zm6 0v1h9v-1h-9zm0 2v1h6v-1h-6zm-7 4v1h1v2h-1v1h5v-1h-1v-2h1v-1h-5zm7 0v1h9v-1h-9zm-5 1h1v2h-1v-2zm5 1v1h2v-1h-2zm0 4v1h9v-1h-9zm0 2v1h6v-1h-6zm7 1v1h2v-1h-2z" fill="#4d4d4d"/>
 </g>
</svg>
