<?xml version="1.0" encoding="UTF-8" standalone="no"?>
<svg id="svg3813" xmlns:rdf="http://www.w3.org/1999/02/22-rdf-syntax-ns#" xmlns="http://www.w3.org/2000/svg" height="22" width="22" version="1.1" xmlns:cc="http://creativecommons.org/ns#" xmlns:dc="http://purl.org/dc/elements/1.1/">
 <g id="layer1" transform="translate(-378.86 -540.08)">
  <path id="path4121" d="m10.045 3c-1.7769 0-2.5216 0.7064-2.5216 2.5098v2.4414c0 1.1138-0.0342 2.4038-1.0156 2.4038h-0.5078v1.29h0.5078c0.9815 0 1.0156 1.29 1.0156 2.404v2.441c0 1.804 0.7447 2.51 2.5216 2.51v-1.184c-1.1846 0-1.2012-0.478-1.2012-2.211v-2.015c0-0.831-0.2048-2.068-1.2032-2.58 0.9984-0.513 1.2032-1.7513 1.2032-2.5823v-2.0332c0-1.7326 0.0165-2.2109 1.2012-2.2109v-1.1836zm1.894 0v1.1836c1.185 0 1.217 0.4783 1.217 2.2109v2.0332c0 0.831 0.205 2.0693 1.203 2.5823-0.998 0.512-1.203 1.749-1.203 2.58v2.015c0 1.733-0.032 2.211-1.217 2.211v1.184c1.777 0 2.538-0.706 2.538-2.51v-2.441c0-1.114 0.068-2.404 1.033-2.404h0.49v-1.29h-0.49c-0.965 0-1.033-1.29-1.033-2.4038v-2.4414c0-1.8034-0.761-2.5098-2.538-2.5098z" transform="translate(378.86 540.08)" fill="#4d4d4d"/>
 </g>
</svg>
