<?xml version="1.0" encoding="UTF-8" standalone="no"?>
<svg id="svg3760" xmlns:rdf="http://www.w3.org/1999/02/22-rdf-syntax-ns#" xmlns="http://www.w3.org/2000/svg" height="22" width="22" version="1.1" xmlns:cc="http://creativecommons.org/ns#" xmlns:dc="http://purl.org/dc/elements/1.1/">
 <g id="layer1" transform="translate(-553.72 -583.12)">
  <path id="rect4112" d="m16 14v2h-2v1h2v2h1v-2h2v-1h-2v-2z" transform="translate(553.72 583.12)" fill="#4d4d4d"/>
  <path id="rect4112-4" d="m3 3v16h9v-1h-2v-2h2v-1h-2v-2h2v-1h-2v-2h2v2h1v-2h2v2h1v-2h2v2h1v-9h-16zm1 1h2 1 2v5h-5v-2-1-2zm6 0h2v2h-2v-2zm3 0h2v2h-2v-2zm3 0h2v2h-2v-2zm-6 3h2v2h-2v-2zm3 0h2v2h-2v-2zm3 0h2v2h-2v-2zm-12 3h2v2h-2v-2zm3 0h2v2h-2v-2zm-3 3h2v2h-2v-2zm3 0h2v2h-2v-2zm-3 3h2v2h-2v-2zm3 0h2v2h-2v-2z" transform="translate(553.72 583.12)" fill="#4d4d4d"/>
  <path id="rect4173" d="m4 4v3 2h5v-2-3h-2-3z" transform="translate(553.72 583.12)" fill="#1d99f3"/>
 </g>
</svg>
