<?xml version="1.0" encoding="UTF-8" standalone="no"?>
<svg id="svg2" xmlns:rdf="http://www.w3.org/1999/02/22-rdf-syntax-ns#" xmlns="http://www.w3.org/2000/svg" height="22" viewBox="0 0 22 22" width="22" version="1.1" xmlns:cc="http://creativecommons.org/ns#" xmlns:dc="http://purl.org/dc/elements/1.1/">
 <g id="layer1" transform="translate(0 -1030.4)">
  <path id="path4174" d="m4 3c-0.5523 0-1 0.4477-1 1s0.4477 1 1 1 1-0.4477 1-1-0.4477-1-1-1zm6 0v1h9v-1zm0 2v1h6v-1zm-6 4c-0.5523 0-1 0.4477-1 1 0 0.552 0.4477 1 1 1s1-0.448 1-1c0-0.5523-0.4477-1-1-1zm6 0v1h9v-1zm0 2v1h2v-1zm-6 4c-0.55228 0-1 0.44772-1 1s0.44772 1 1 1 1-0.44772 1-1-0.44772-1-1-1zm6 0v1h9v-1zm0 2v1h6v-1zm7 1v1h2v-1z" transform="translate(0 1030.4)" fill="#4d4d4d"/>
 </g>
</svg>
