<svg enable-background="new 0 0 20 20" viewBox="0 0 20 20" xmlns="http://www.w3.org/2000/svg"><path d="m16.8 3.2c-1.8-1.9-4.1-2.8-6.8-2.8s-4.9.9-6.8 2.8-2.8 4.2-2.8 6.8.9 4.9 2.8 6.8 4.1 2.8 6.8 2.8c2.6 0 4.9-1 6.9-2.9 1.8-1.8 2.7-4.1 2.7-6.7 0-2.7-.9-5-2.8-6.8zm-1.2 12.3c-1.6 1.6-3.5 2.4-5.6 2.4s-4-.8-5.6-2.3c-1.5-1.6-2.3-3.5-2.3-5.6s.8-4 2.4-5.6c1.5-1.5 3.3-2.3 5.5-2.3s4 .8 5.6 2.3c1.5 1.5 2.3 3.4 2.3 5.6s-.8 4-2.3 5.5zm-1.7-8.3h-2.1v-2c0-.3-.2-.5-.5-.5h-5.2v0c-.3 0-.5.3-.5.5v7.1c0 .3.2.5.5.5h2.1v2.1c0 .3.2.5.5.5h5.2c.3 0 .5-.2.5-.5v-7.1c.1-.3-.2-.6-.5-.6zm-5.3 0c-.3 0-.5.3-.5.5v3.9h-1.5v-6h4.2v1.6h-2.2c.1 0 .1 0 0 0zm4.8 7.1h-4.2v-6h4.2z"/></svg>