<svg enable-background="new 0 0 20 20" viewBox="0 0 20 20" xmlns="http://www.w3.org/2000/svg"><path d="m16.8 3.2c-1.8-1.9-4.1-2.8-6.8-2.8s-4.9.9-6.8 2.8-2.8 4.2-2.8 6.8.9 4.9 2.8 6.8 4.1 2.8 6.8 2.8c2.6 0 4.9-1 6.9-2.9 1.8-1.8 2.7-4.1 2.7-6.7s-.9-5-2.8-6.8zm-1.2 12.3c-1.6 1.6-3.5 2.4-5.6 2.4s-4-.8-5.6-2.3c-1.5-1.6-2.3-3.5-2.3-5.6s.8-4 2.4-5.6c1.5-1.5 3.3-2.3 5.5-2.3s4 .8 5.6 2.3c1.5 1.5 2.3 3.4 2.3 5.6s-.8 4-2.3 5.5zm-1.569305-5.5498801c0 2.9000001-.893583 5.8031401-3.893583 5.8031401-2.1000006 0-3.8227255-1.600348-4.0166747-4.365475l1.7815597-.0012c.1 1.3 1.098003 2.306225 2.298003 2.306225 1.4 0 1.904814-1.813741 1.904814-3.7137409 0-2-.641925-3.6137412-2.041925-3.6137412-1.1000003-.000032-1.8024076.8346721-2.0024076 2.1346721-.2117866 1.0987467-.1894923 2.843246-.0098815 3.707588l-1.1805754-.758431-.6767872.617041c-.090363-.828214-.2073771-1.401446-.156126-2.9919754.1628887-2.5580742 1.7048145-4.8065194 3.8048145-4.8065194 3.0000002 0 4.1887692 2.7824167 4.1887692 5.6824167z"/><path d="m8.3932847 12.981242 3.1702983-6.2355004" fill="none" stroke="#000" stroke-width=".9619261"/></svg>