<svg enable-background="new 0 0 20 20" viewBox="0 0 20 20" xmlns="http://www.w3.org/2000/svg"><path d="m8.8 10.8 1.1.6c-.2.4-.6.8-1 1.1s-.9.4-1.4.4c-.8 0-1.5-.2-2-.8-.5-.5-.7-1.2-.7-2.1s.3-1.6.8-2.1c.4-.5 1.1-.8 1.9-.8 1.1 0 2 .4 2.4 1.3l-1.2.7c-.2-.3-.3-.5-.5-.6s-.4-.1-.5-.1c-.8 0-1.2.5-1.2 1.6 0 .5.1.9.3 1.2s.5.4.9.4c.5 0 .9-.2 1.1-.8zm4.2.8c-.4 0-.7-.1-.9-.4s-.3-.7-.3-1.2c0-1.1.4-1.6 1.2-1.6.2 0 .4.1.5.2.2.1.4.3.5.6l1.2-.6c-.5-.9-1.3-1.3-2.4-1.3-.8 0-1.4.3-1.9.8s-.8 1.2-.8 2.1.2 1.6.7 2.1 1.2.8 2 .8c.5 0 1-.1 1.4-.4s.8-.6 1-1.1l-1.2-.6c-.1.4-.5.6-1 .6zm6.6-1.6c0 2.7-.9 4.9-2.7 6.7-1.9 1.9-4.2 2.9-6.9 2.9-2.6 0-4.9-.9-6.8-2.8s-2.8-4.1-2.8-6.8c0-2.6.9-4.9 2.8-6.8 1.9-1.9 4.1-2.8 6.8-2.8s5 .9 6.8 2.8c1.9 1.8 2.8 4.1 2.8 6.8zm-1.7 0c0-2.2-.8-4-2.3-5.6-1.6-1.5-3.4-2.3-5.6-2.3s-4 .8-5.5 2.3c-1.6 1.6-2.4 3.5-2.4 5.6s.8 4 2.3 5.5c1.6 1.6 3.4 2.3 5.6 2.3 2.1 0 4-.8 5.6-2.4 1.5-1.4 2.3-3.2 2.3-5.4z"/></svg>