<svg viewBox="0 0 16 16" xmlns="http://www.w3.org/2000/svg"><g fill="#ffffff" transform="translate(-421.71 -531.79)"><circle cx="427.21" cy="538.29" r="2.5"/><circle cx="433.21" cy="536.29" r="2.5"/><path d="m5.5 10a3.5 4 0 0 0 -3.5 4h1 5 1a3.5 4 0 0 0 -3.5-4zm0 1a2.5 3 0 0 1 2.3535 2h-4.707a2.5 3 0 0 1 2.3535-2z" transform="translate(421.71 531.79)"/><path d="m11.646 8a3.5 4 0 0 0 -3.1538 2.273 4.5 5 0 0 1  1.125 1.727h4.5288 1a3.5 4 0 0 0 -3.5-4zm0 1a2.5 3 0 0 1 2.354 2h-4.707a2.5 3 0 0 1 2.353-2z" transform="translate(421.71 531.79)"/></g></svg>
