<svg viewBox="0 0 16 16" xmlns="http://www.w3.org/2000/svg"><path d="m5.5 2a1.5 1.5 0 0 0 -1.5 1.5 1.5 1.5 0 0 0  1 1.412109v6.177891a1.499991 1.499991 0 0 0 -1 1.41 1.499991 1.499991 0 0 0  1.5 1.5 1.499991 1.499991 0 0 0  1.5-1.5 1.499991 1.499991 0 0 0 -1-1.41211v-6.17589a1.5 1.5 0 0 0 1-1.412 1.5 1.5 0 0 0 -1.5-1.5m3.5 0-2 1.4 2 1.6v-1h1c .554 0 1 .446 1 1v6.09a1.499991 1.499991 0 0 0 -1 1.41 1.499991 1.499991 0 0 0  1.5 1.5 1.499991 1.499991 0 0 0  1.5-1.5 1.499991 1.499991 0 0 0 -1-1.41211v-6.08789c0-1.108-.89-1.945-2-2h-1zm-3.5 1a .5.5 0 0 1  .5.5.5.5 0 0 1 -.5.5.5.5 0 0 1 -.5-.5.5.5 0 0 1  .5-.5m0 9a .499991.499991 0 0 1  .5.5.499991.499991 0 0 1 -.5.5.499991.499991 0 0 1 -.5-.5.499991.499991 0 0 1  .5-.5m6 0a .499991.499991 0 0 1  .5.5.499991.499991 0 0 1 -.5.5.499991.499991 0 0 1 -.5-.5.499991.499991 0 0 1  .5-.5" fill="#ffffff"/></svg>
