<svg xmlns="http://www.w3.org/2000/svg" viewBox="0 0 16 16"><path fill="#cf000f" d="M3.856 2c-.162.01-.336 0-.527.132-1.704.732-.56 2.741 1.611 4.27.013-.288.133-.915.13-1.191-1.853-1.269-2.937-2.504-1.756-2.994 1.245-.516 1.632.893 1.654 2.939.116.12.92.653 1.041.737-.045-1.865-1.038-3.77-1.992-3.877-.05-.01-.107-.01-.16-.01M5.59 5.25l-.387-.15-.322.215-.065.681.406.311.169.226C6.642 7.362 7.707 8 9.108 8.527l.874.13h.575c.53-.312.214-.432 2.14-.672l-2.17.168c-1.674-.649-3.383-1.58-4.937-2.595m3.82 2.715c.251 0 2.21-.17 2.989-.242.77-.12 1.718-.156 1.539.745.204-.48-.261-1.296-.922-1.44-1.022-.228-2.644.398-3.227.59m.94.25c-.304.12-.999.206-1.327.314.465.24 2.8 1.101 3.764.921.154 0 .805-.467.82-.803-.05.612-2.903.156-3.257-.445m.635.011c-.25-.12-1.421-.114-1.68-.21-1.467.513-3.44 1.716-4.852 2.527l-.409.12c-.078.56-.424.754-.74 1.117l.478.48.374-.612c1.653-.997 4.922-2.606 6.828-3.38m-6.828 3.38c-.202.12-.395.24-.578.36-.424 1.201-.918 2.01-1.39 1.975.73.349 2.3-1.367 2.829-2.98m-2.829 2.98c-1.112-.66 1.242-1.863 1.77-2.212.118-.336-.207-.893-.101-1.29-1.66 1.033-2.642 2.527-2.085 3.235.134.168.276.252.417.264m1.616-2.515c.077-.31 1.103-1.013 1.288-1.121.248-1.95.26-2.144.47-3.66-.126-.12-.901-.724-1.021-.808-.15 1.62-.43 3.817-.825 5.284"/></svg>