<svg viewBox="0 0 16 16" xmlns="http://www.w3.org/2000/svg"><path d="m10.5 2a2.5 2.5 0 0 0 -2.4492 2h-6.0508v1h6.0547a2.5 2.5 0 0 0 2.4453 2 2.5 2.5 0 0 0  2.449-2h1.051v-1h-1.055a2.5 2.5 0 0 0 -2.445-2zm-5 7a2.5 2.5 0 0 0 -2.4453 2h-1.0547v1h1.0508a2.5 2.5 0 0 0 2.4492 2 2.5 2.5 0 0 0  2.4453-2h6.0547v-1h-6.0508a2.5 2.5 0 0 0 -2.4492-2zm0 1a1.5 1.5 0 0 1 1.4121 1 1.5 1.5 0 0 1  .043.143 1.5 1.5 0 0 1  .0293.144 1.5 1.5 0 0 1  0 .004 1.5 1.5 0 0 1  .0019.016 1.5 1.5 0 0 1  .0117.127 1.5 1.5 0 0 1  0 .005 1.5 1.5 0 0 1  .002.061 1.5 1.5 0 0 1 -.0078.15 1.5 1.5 0 0 1 -.0801.35 1.5 1.5 0 0 1 -1.4121 1 1.5 1.5 0 0 1 -1.4121-1 1.5 1.5 0 0 1 -.043-.143 1.5 1.5 0 0 1 -.0293-.144 1.5 1.5 0 0 1 -.0019-.02 1.5 1.5 0 0 1 -.0117-.127 1.5 1.5 0 0 1 -.002-.066 1.5 1.5 0 0 1  .0078-.15 1.5 1.5 0 0 1  .0801-.35 1.5 1.5 0 0 1  1.4121-1z" fill="#ffffff" transform=""/></svg>
