<svg xmlns="http://www.w3.org/2000/svg" viewBox="0 0 16 16"><path fill="#fff" d="M8 2.005c-1.109 0-2.14.32-3.031.844l.562.562.188.188 1.937 1.937.719-.719L6.75 3.192c.195-.05.39-.097.594-.125.052-.008.103-.025.156-.031.168-.017.327-.031.5-.031a5 5 0 0 1 5 5c0 .243-.028.485-.062.718-.02.137-.032.274-.063.407a4.792 4.792 0 0 1-.281.812c-.014.03-.018.064-.032.094-.04.092-.108.164-.156.25-.004.008.005.023 0 .03l.75.72A5.953 5.953 0 0 0 14 8.005a6 6 0 0 0-6-6zM2.844 4.974A5.959 5.959 0 0 0 2 8.004a6 6 0 0 0 6 6c1.109 0 2.14-.318 3.03-.843l-.561-.562-.188-.188-1.937-1.906-.688.688 1.594 1.624c-.196.052-.39.098-.594.126-.052.007-.103.025-.156.03-.168.018-.328.032-.5.032s-.332-.014-.5-.031-.337-.03-.5-.063a5.017 5.017 0 0 1-4-4.906c0-.249.028-.48.062-.72.02-.135.032-.273.063-.405.067-.287.167-.548.281-.813.013-.03.018-.063.031-.094.041-.088.109-.164.157-.25v-.03z"/></svg>