<svg viewBox="0 0 16 16" xmlns="http://www.w3.org/2000/svg"><path d="m8 2c-1.1088 0-2.1401.3193-3.0312.8438l.5624.5624.1876.1876 1.9374 1.9374.7188-.7187-1.625-1.625c.1953-.0511.3899-.0977.5938-.125.0524-.0078.1032-.0252.1562-.0313.1681-.017.3274-.0312.5-.0312 2.761 0 5 2.2386 5 5 0 .243-.028.4855-.062.7188-.02.1362-.032.2738-.063.4062-.067.2866-.167.5476-.281.8125-.014.0307-.018.0635-.032.0935-.04.092-.108.164-.156.25-.004.008.005.023 0 .031l.75.719c.525-.891.844-1.9222.844-3.031 0-3.3137-2.686-6-6-6zm-5.1562 2.9688c-.5245.8911-.8438 1.9224-.8438 3.0312 0 3.314 2.6863 6 6 6 1.1088 0 2.14-.319 3.031-.844l-.562-.562-.188-.188-1.9372-1.906-.6876.688 1.5938 1.624c-.1953.052-.3899.098-.5938.126-.0524.007-.1032.025-.1562.031-.1681.017-.3274.031-.5.031s-.3319-.014-.5-.031-.3373-.029-.5-.063c-2.2784-.466-4-2.49-4-4.906 0-.2483.0276-.4802.0625-.7188.02-.1362.0318-.2738.0625-.4062.067-.2866.1666-.5476.2812-.8125.013-.0307.0177-.0633.0313-.0937.0406-.0889.1086-.1648.1563-.25v-.0313z" fill="#ffffff" transform="matrix(.999975 0 0 .999975 -.000002027965 .004846925)"/></svg>
