<svg viewBox="0 0 16 16" xmlns="http://www.w3.org/2000/svg"><path d="m8 3a9 9 0 0 0 -7.877 4.668c.12899.3637.35749.6766.6563.9082a8 8 0 0 1 7.2207-4.5762 4 4 0 0 0 -4 4 4 4 0 0 0  4 4 4 4 0 0 0  4-4 4 4 0 0 0 -3.6504-3.9824 8 8 0 0 1  6.8714 4.5586c.301-.2337.532-.5501.66-.918a9 9 0 0 0 -7.881-4.6582zm0 2a3 3 0 0 1 3 3 3 3 0 0 1 -3 3 3 3 0 0 1 -3-3 3 3 0 0 1  3-3zm0 1a2 2 0 0 0 -2 2 2 2 0 0 0  2 2 2 2 0 0 0  2-2 2 2 0 0 0 -.0898-.5879 1 1 0 0 1 -.9102.5879 1 1 0 0 1 -1-1 1 1 0 0 1  .5898-.9102 2 2 0 0 0 -.5898-.0898z" fill="#ffffff" transform="matrix(.999975 0 0 .999975 -.000002027965 .004846925)"/></svg>
