<svg viewBox="0 0 16 16" xmlns="http://www.w3.org/2000/svg"><path d="m13.314 2-11.314 11.295.7148.705 11.285-11.303-.686-.697zm-5.314 1a9 9 0 0 0 -7.877 4.668c.12899.3637.35749.6766.6563.9082a8 8 0 0 1 7.2207-4.5762 4 4 0 0 0 -4 4 4 4 0 0 0  .1055.8945l.8945-.8945a3 3 0 0 1 3-3l .8926-.8926a4 4 0 0 0 -.543-.0898 8 8 0 0 1  .5781.0547l.8789-.8789a9 9 0 0 0 -1.8066-.1934zm5.836 2.1641-.715.7148a8 8 0 0 1 2.1 2.6973c.301-.2337.532-.5501.66-.918a9 9 0 0 0 -2.045-2.4941zm-1.941 1.9414-.895.8945a3 3 0 0 1 -3 3l-.8926.893a4 4 0 0 0  .8926.107 4 4 0 0 0  4-4 4 4 0 0 0 -.105-.8945z" fill="#ffffff" transform="matrix(.999975 0 0 .999975 -.000002027965 .004846925)"/></svg>
