<svg viewBox="0 0 16 16" xmlns="http://www.w3.org/2000/svg"><path d="m8 2c-3.3137 0-6 2.6863-6 6 0 3.314 2.6863 6 6 6 3.314 0 6-2.686 6-6 0-3.3137-2.686-6-6-6zm0 1c .1726 0 .3319.0142.5.0312.0403.004.085-.0049.125 0 .0526.0067.1042.023.1562.0313.1437.0226.2671.0592.4063.0937.2566.0633.5107.1488.75.25.1315.0558.2495.121.3745.1876 0 .009.001.0202 0 .0312.029.013.045.0668.094.0938.018.01.015.0222.032.0312.028.016.068.0335.062.0625-.008.04-.066.0315-.094.0625.004.058-.047.0548-.062.0938.009.025.058.0324.062.0624-.005.032-.074.0296-.062.0626.054.042.105.01.156 0 .112-.014.212-.0056.281-.0626-.009-.053.1-.0456.094-.0937.029.0209.065.0413.094.0625-.011.0101-.019.0258-.031.0312-.022.01-.044.0193-.063.0313-.028.018-.062.0415-.094.0625-.023.016-.069.0938-.093.0938-.029 0-.073-.0373-.094-.0313-.03.01-.029.0505-.063.0625-.066.024-.196-.0365-.219.0625.028.057.138.0305.188.0625.031.02.086.091.094.125.008.028.012.1575 0 .1875-.031.08-.127.0635-.219.0625h-.063c-.154-.01-.305-.0798-.3745.0312.0049.085.019.1448 0 .2188-.014.054-.0967.1096-.0937.1562.001.024.0565.0598.0624.0938.0039.018-.008.0455 0 .0625.0261.049.0791-.01.1248 0 .044.01.094.0758.094.125 0 .035-.009.0911-.031.125-.044.066-.1248.0577-.1878.0937-.0519.03-.0627.1047-.0937.1563-.033.056-.0755.0761-.0625.1563-.045.089-.0945.1444-.1875.1874-.027.012-.0688.0133-.0937.0313-.0201.014-.0345.0617-.0626.0937-.0349.039-.0747.0638-.0937.0938-.014.023-.0163.0618-.0313.0938-.022.042-.0657.0515-.0937.0937-.013.02-.0173.0677-.0313.0937-.032.058-.0685.1053-.0624.1563.0049.048.0595.0497.0624.0937.0028.024-.0322.0356-.0312.0626.0011.038.0283.0637.0312.0937.007.074-.0485.1057-.0624.1563-.007.024.006.0424 0 .0624-.012.037-.0615.0808-.0626.125-.001.031.0596.0498.0626.0938.0022.029-.0373.0658-.0313.0938.011.054.1143.1142.1563.1562.0569.057.1312.0962.1562.1562.021.051.0235.1494.0625.1876.029.028.088.0324.125.0624.035.027.0568.0326.0937.0626.061.048.1531.1632.25.1562.051-.01.0998-.0525.1558-.0625.06-.01.128-.0363.188-.0313.046.01.108.0343.156.0313.05-.01.1-.0063.156-.0313.1-.043.263-.1144.407-.0937.11.016.11.1385.187.1875.088.01.149-.017.219 0 .053.013.12.0834.125.125.005.043-.057.0978-.062.125-.014.058.009.1192 0 .1562-.008.029-.033.0648-.032.0938 0 .026.036.0908.063.125.033.042.085.0798.125.125.073.084.105.1702.156.2812.013.028-.012.0578 0 .0938-.022.1679-.078.2828-.188.4688-.051.0602-.126.1122-.124.1872-.004.18.101.295.093.469-.018.234.018.25 0 .375.079.04.023.167 0 .25-.034.099-.075.122-.093.188.053.023.128.013.187 0-.03.031-.063.063-.094.093-.226.226-.484.446-.75.625-.516.349-1.0898.614-1.7185.75-.3435.075-.6966.094-1.0625.094-.1903 0-.3781-.01-.5625-.031-.1469-.017-.2948-.034-.4375-.063-.2832-.058-.549-.177-.8125-.281-.0094-.017-.0334-.042-.0313-.063.052-.022.1496.074.1876 0 .019-.034-.0251-.121 0-.156.0179-.024.1192-.024.1562-.031.053-.01.1263-.017.1562-.031.033-.021.0686-.095.0626-.156-.0028-.03-.0396-.037-.0626-.063-.0189-.022.013-.041 0-.063-.0239-.034-.0837-.042-.0937-.093.072-.014.1773.06.2813.031.049-.014.1332-.11.1562-.156.007-.014-.008-.045 0-.063.009-.018.0282-.052.0312-.062.007-.027-.006-.013 0-.031.018-.052.0638-.089.0938-.126.023-.028.0727-.064.0938-.093.0239-.031.0152-.035.0312-.063.015-.091-.0532-.17-.0312-.25.0239-.09.163-.146.25-.187.0299-.014.0687-.023.0937-.031.06-.022.1315-.043.1875-.063.094-.034.1102-.102.1562-.187.022-.04.0585-.096.0626-.126.0038-.026-.005-.031 0-.062.0049-.029-.008-.06 0-.094.011-.043.0312-.139.0312-.187 0-.04-.0303-.058-.0312-.094-.007-.13.0457-.117.0937-.1875.024-.035.0456-.0999.0625-.125.081-.12.2287-.1617.2188-.3437-.0039-.06-.0498-.1998-.0938-.2188-.025-.011-.0568-.0182-.0938-.0312-.1179-.044-.2207-.1776-.3437-.1876h-.0625c-.048 0-.1023-.0242-.1562-.0312-.034-.01-.1051.01-.125 0-.0311-.015-.0376-.0768-.0626-.0938-.02-.014-.0627-.0202-.0937-.0312-.049-.018-.068-.0585-.125-.0625-.018 0-.0425.01-.0625 0-.031-.01-.0648-.0133-.0938-.0313-.0359-.022-.0787-.0314-.0937-.0624.033-.108-.0717-.1246-.0937-.1876-.0101-.029.01-.099 0-.125-.013-.037-.0528-.0627-.0938-.0937-.072-.056-.1158-.0809-.2188-.0937-.0459-.01-.1012.01-.1562 0-.058-.01-.1435-.0438-.1875-.0938-.042-.049-.0568-.1019-.0937-.125-.035-.022-.0698-.0395-.0938-.0625-.011-.01-.0212-.0083-.0312-.0313-.018-.037-.0533-.0487-.0313-.0937-.04-.02-.0195.0383-.0625.0313-.039-.055-.0683-.1098-.1562-.0938-.04.01-.0781.0928-.125.0938-.039 0-.0741-.0858-.125-.0938-.039-.01-.0981.0362-.125.0312-.0431-.01-.0548-.0364-.0938-.0624-.029-.019-.0778-.0636-.0938-.0626-.0499 0-.0872.099-.1562.0626-.034-.043.0713-.0538.0312-.0938-.0299-.029-.0384.0172-.0624.0312-.028.018-.0628.0203-.0938.0313-.069.026-.1335.0335-.1875.0625-.05.026-.0648.0424-.0937.0938-.023.042-.0588.123-.0938.125-.042 0-.0558-.0456-.0938-.0626-.1149-.05-.1862.0293-.2812.0313-.088 0-.2227-.1357-.2188-.2187.0028-.051.0253-.1246.0313-.1876.0049-.05.0616-.1106.0625-.1562.0011-.062-.1163-.0866-.1562-.0938-.094-.017-.2056.042-.3126 0-.02-.034.0193-.0597.0313-.0937.007-.018-.007-.0415 0-.0625.012-.032.0788-.0598.0937-.0938.011-.026-.011-.0607 0-.0937.013-.036.0595-.0677.0626-.0937.0038-.034-.0356-.0718-.0626-.0938-.0829.01-.1395.0072-.1874.0312-.108.049-.0786.1848-.1876.2188-.037.012-.083.0242-.125.0312-.0183.01-.0419-.002-.0624 0 .0019-.0101-.0021-.0211 0-.0312.0046-.0228.0262-.0398.0312-.0625.0713-.325.1814-.6396.3125-.9375h.0313c.038.01.0607.0595.0937.0625.092.01.1115-.0848.1875-.125.078.011.1165-.01.1875 0 .048.01.1183.0585.1563.0625.032 0 .0324-.0352.0624-.0312.03.01.0888.0577.0938.0937.005.045-.0443.1067-.0312.1563.047.048.1517.0657.2187.0937.044-.037.007-.1043 0-.1563-.0011-.023.0027-.0727 0-.0937-.0049-.036-.0313-.0627-.0313-.0937 0-.143.1228-.1942.2188-.25.041-.024.089-.0758.125-.0938.051-.025.083-.0072.125-.0312.076-.043.1285-.1076.1875-.1563.027-.065-.0027-.1547 0-.2187.027-.017.0648 0 .0937 0 .046-.01.0678-.0678.0938-.0938.015-.015.0445-.0162.0625-.0312.046-.036.0537-.0778.0937-.0938.0141-.01.0405-.0242.0626-.0312.03-.01.077-.0133.125-.0313.031-.011.1129-.0183.125-.0313.015-.015-.0039-.0707 0-.0937.0239-.1129.1802-.1181.2812-.1563.07-.026.1408-.1077.2188-.0937-.0151.054-.0756.0599-.0626.125.017.091.1243-.0183.1563-.0313.061-.026.17-.0637.25-.0937.07-.025.191-.0444.125-.125-.055-.01-.077.0425-.125.0625-.033.01-.0345-.0282-.0625-.0312-.027 0-.0355.0362-.0625.0312-.027-.01-.0585-.0608-.0625-.0938-.011-.084.0598-.0943.0938-.1562-.023-.076-.1236-.0325-.1876-.0625.007-.045.0408-.0837.0938-.0937.043-.01.1615.0082.1875.0312.015.013-.0229.0415 0 .0625.026.023.0598.01.0937 0 .012-.057-.0724-.0255-.0624-.0625.0679-.044.1982-.0202.2812-.0312.048-.01.1133-.0396.1562-.0626.04-.023.0518-.0692.0938-.0312.012.041-.0083.0718-.0312.0938-.077.068-.1588.1398-.2188.2187.037.036.0943.0243.1562.0313.024.01.0688-.005.0938 0 .03.01.0697-.01.0938 0 .042.01.0517.0937.0937.0937.068 0 .039-.0798 0-.125.012-.047.0483-.0918.0313-.125-.0311-.062-.1503.0185-.1563-.0625-.0039-.05.0445-.0558.0625-.0938-.008-.096.0725-.1004.0625-.1874-.0049-.036-.0375-.0286-.0625-.0626-.013-.018-.0163-.0797-.0312-.0937-.052-.044-.1503-.0095-.1563-.0937-.0027-.05.007-.1027 0-.1563-.007-.051-.0498-.2087-.0937-.2187-.056-.012-.0893.0936-.1563.125-.036.017-.1193.0372-.1563.0312-.0239-.01-.0594-.0155-.0624-.0625-.004-.0424.0468-.0613.0624-.0937.004-.0082-.0019-.0201 0-.0313.0726-.0202.145-.0452.2188-.0625.0419-.0097.0827-.0226.125-.0312.0299-.0063.0637.0057.0938 0 .1335-.0248.2691-.0486.4062-.0626.1662-.0174.3289-.0312.5-.0312zm-2.0312.4688c-.0319.1825-.2028.2552-.4063.25-.046.044-.0063.1264-.0313.1874-.021.051-.1052.0978-.1562.0938-.037 0-.0938-.0588-.0938-.0938 0-.043.0683-.0445.0313-.0937.0017-.01.0209-.0213.0313-.0313.0202-.0127.0421-.0187.0624-.0312.1813-.1115.367-.1932.5626-.2812zm4.1872.1874c-.018.01-.015.0213-.031.0313-.038.023-.065.0515-.094.0625-.0407.015-.0875.0255-.0935.0625-.0049.031.0323.0335.0313.0625-.0151.037-.0233.0488-.0313.0938.051.083.1555-.0183.2185-.0313.028-.01.048-.0073.063-.0313.017-.027.018-.0555.031-.0937.014-.042.068-.0567.062-.0937-.003-.037-.094-.0676-.156-.0626zm-5.4685.625c.0474.0381.1141.1206.0313.1563-.0101.01-.1323.0353-.1563.0313-.0097 0-.0228-.024-.0313-.0313.0517-.0503.1025-.1082.1563-.1563zm.1875.1876c.024 0 .0345.0604.0625.0624.027 0 .0465-.0352.0625-.0312.042.011.0713.0938.0312.125-.033.01-.0385-.0352-.0624-.0312-.068.012-.1053.1602-.1563.1562-.048-.01-.0803-.1212-.0313-.1562.0012-.03-.002-.0316 0-.0626.0151-.018.0538-.0654.0938-.0624zm-.25.0312c.014 0 .0262-.01.0312 0-.0069.053-.0215.0688-.0624.0938-.071.043-.1333.096-.1563.1874-.007.027-.091.1005-.125.0938-.079-.017.0445-.1646.0625-.1875.02-.025.0395-.0335.0625-.0625.023-.028.0406-.0778.0625-.0938.024-.017.083-.0332.125-.0312zm6.781.1562c.079-.01.121.0774.156.125.03.039.108.0978.157.125.028.015.063.0486.093.0626.065.029.185.1234.188.1874.001.032-.036.0638-.031.0938.049.01.093-.0758.093-.125.092.13.171.2677.25.4062.038.0655.091.1201.126.1876-.045.013-.056.0194-.063.0624-.01.056.021.1464-.063.1563-.052.01-.114-.0455-.187-.0625-.03-.01-.07.01-.094 0-.055-.018-.047-.0917-.093-.125-.028-.019-.114-.0575-.157-.0625-.027 0-.034.01-.062 0-.034-.01-.097.014-.125 0-.027-.017-.087-.0707-.094-.0937-.011-.037.092-.0625.094-.0938.002-.024-.026-.0568-.032-.0938-.003-.022.005-.0474 0-.0624-.006-.026-.052-.0303-.093-.0313h-.094c-.044 0-.133-.004-.187 0-.034 0-.063-.003-.094 0-.087.01-.151-.01-.219 0-.049 0-.142.0415-.187.0625-.023.011-.033.0162-.063.0312-.014.01-.044.0233-.063.0313-.027.013-.066.0545-.093.0625-.039.01-.086-.01-.157 0-.05 0-.123-.0328-.124-.0938-.002-.093.162-.0454.25-.0624.032-.01.053-.0386.093-.0626.019-.011.014-.0192.031-.0312.03-.021.089-.0698.094-.0938.004-.022-.003-.0454 0-.0624.004-.021.036-.0346.063-.0626.042-.042.073-.0978.125-.125.035-.018.078-.0334.094-.0624.003-.032-.002-.0326 0-.0626.022-.02.044-.0272.062-.0312.054-.012.093.003.156 0 .027 0 .065.013.094 0 .024-.016.038-.0505.062-.0625.027-.014.062-.0293.094-.0313zm.563.5938h-.125c-.044 0-.099-.023-.125 0 .037.06.104.0788.187.0938.03-.022.049-.0555.063-.0938zm-6.844-.5625h.0938c.025 0 .0525-.01.0624 0-.016.066-.1667.0553-.2187.0313.0027-.025.0305-.0273.0625-.0313zm-.2188.125c-.0436.0318-.0869.0721-.1562.0937-.038.012-.0867.0108-.0938-.0312-.008-.052.0598-.0262.0938-.0312.044-.01.1053-.0293.1562-.0313zm6.4998 0c-.033.011-.049.0837 0 .0937.023-.014.038-.0507.032-.0937-.013-.014-.022-.01-.032 0zm-.062.1563c.001.056.011.1076 0 .1562.032.062.109.0108.125-.0312.019-.104-.015-.138-.063-.125-.016.01-.045-.013-.062 0zm-8.2815 2.3437c.0564.051.0888.1229.1563.1563.025.013.0617.0232.0937.0312.026.01.0375-.008.0625 0 .053.018.1143.0435.1562.0625.064.028.1326.1243.1876.1563.0027.032-.0101.0697 0 .0937.026.035.0517.0697.0937.0937.051.028.077.0716.125.0938.017.01.0365-.01.0625 0 .066.02.0993.1106.1562.0938.0371-.011.0253-.0578.0313-.0938.025-.027.0547-.0625.0937-.0625.062 0 .0708.0957.0938.1563.013.034.0535.0577.0625.0937.015.062.013.2443 0 .2813-.016.046-.087.0434-.125.0937-.018.024-.0173.0767-.0313.0937-.0239.029-.0444.0346-.0624.0626-.0101.015-.0223.0414-.0313.0624-.03.064-.0875.1106-.0625.1876.01.031.0625.0567.0625.0937 0 .044-.0867.0768-.0937.125-.005.035.0203.0783.0312.125.008.035.0728.0707.0938.0937.0349.039.0617.1068.0937.1563.063.097.0943.2175.1563.3125.033.049.103.0734.125.125.011.026-.0101.07 0 .094.0359.081.2002.179.2812.218.038.02.09.012.125.032.053.03.1605.109.1875.156.024.042.0193.152.0313.219.015.088-.0039.155 0 .25.0027.052.0312.073.0312.125 0 .018.0011.074 0 .094-.0011.062.005.124 0 .187-.0028.034-.0022.065 0 .094.0028.031.0293.034.0312.062.0022.029-.0342.071-.0312.094.007.063.0505.098.0625.156.01.046.0372.164.0313.219-.0039.029-.0273.061-.0313.094-.0027.026.0039.038 0 .062-.0027.023.0059.044 0 .063-.0318-.021-.0624-.042-.0937-.063-.2661-.179-.5238-.399-.75-.625-.0306-.03-.064-.062-.0938-.093-.1806-.191-.3509-.409-.5-.626-.0135-.019-.018-.042-.0312-.062-.1731-.259-.3147-.522-.4376-.8125-.0088-.0209-.0226-.0414-.0312-.0625-.1054-.259-.1889-.534-.25-.8125-.0115-.0526-.0214-.1031-.0312-.1563-.0248-.1335-.0486-.2691-.0626-.4062-.017-.1681-.0312-.3274-.0312-.5 0-.2376.0304-.4587.0625-.6875zm1.9375.5313c.048-.022.039.0554 0 .0624-.037.01-.036-.0444 0-.0624z" fill="#ffffff" transform=""/></svg>
