<svg xmlns="http://www.w3.org/2000/svg" viewBox="0 0 22 22"><path d="M198 88h22v22h-22z" style="fill:none;fill-opacity:1;stroke:none;stroke-linejoin:miter" transform="translate(-198 -88)"/><path d="M209 91c-3.308 0-6 2.692-6 6l.002.057c.014 2.321.86 3.509 1.62 4.394.764.893 1.378 1.442 1.378 3.049v2.5h2v1h2v-1h2v-2.5c0-1.607.634-2.304 1.39-3.25.75-.936 1.589-2.104 1.606-4.187L215 97c0-3.308-2.692-6-6-6m0 1c2.767 0 5 2.233 5 5 0 1.875-.647 2.696-1.39 3.625-.663.828-1.337 1.843-1.495 3.375h-4.234c-.164-1.504-.85-2.44-1.502-3.201-.735-.857-1.379-1.66-1.379-3.799 0-2.767 2.233-5 5-5m-1.854 5.146-1.5 1.5.708.708 1.146-1.147 1.146 1.147h.708l1.146-1.147 1.146 1.147.708-.708-1.5-1.5h-.708L209 98.293l-1.146-1.147z" style="color:#ffffff;fill:currentColor;fill-opacity:1;stroke:none" transform="translate(-198 -88)"/></svg>
