<svg viewBox="0 0 22 22" xmlns="http://www.w3.org/2000/svg"><path d="m10.045 3c-1.7769 0-2.5216.7064-2.5216 2.5098v2.4414c0 1.1138-.0342 2.4038-1.0156 2.4038h-.5078v1.29h.5078c.9815 0 1.0156 1.29 1.0156 2.404v2.441c0 1.804.7447 2.51 2.5216 2.51v-1.184c-1.1846 0-1.2012-.478-1.2012-2.211v-2.015c0-.831-.2048-2.068-1.2032-2.58.9984-.513 1.2032-1.7513 1.2032-2.5823v-2.0332c0-1.7326.0165-2.2109 1.2012-2.2109zm1.894 0v1.1836c1.185 0 1.217.4783 1.217 2.2109v2.0332c0 .831.205 2.0693 1.203 2.5823-.998.512-1.203 1.749-1.203 2.58v2.015c0 1.733-.032 2.211-1.217 2.211v1.184c1.777 0 2.538-.706 2.538-2.51v-2.441c0-1.114.068-2.404 1.033-2.404h.49v-1.29h-.49c-.965 0-1.033-1.29-1.033-2.4038v-2.4414c0-1.8034-.761-2.5098-2.538-2.5098z" fill="#ffffff" transform=""/></svg>
