<svg viewBox="0 0 16 16" xmlns="http://www.w3.org/2000/svg"><path d="m4 2c-1.108 0-2 .892-2 2s .892 2 2 2c .503 0 .9559-.1897 1.3066-.4941.4308.7341.6934 1.5773.6934 2.4941s-.2626 1.76-.6934 2.494c-.3507-.304-.8036-.494-1.3066-.494-1.108 0-2 .892-2 2s .892 2 2 2c .7411 0 1.379-.404 1.7246-1h5.2754v1h3v-3h-3v1h-5c0-.197-.0373-.383-.0898-.562.6834-.973 1.0898-2.1539 1.0898-3.438 0-1.2799-.4166-2.4473-1.0957-3.418.0563-.1852.0957-.3778.0957-.582h4v2h4v-4h-4v1h-4.2754c-.3456-.5958-.9835-1-1.7246-1zm0 1c .554 0 1 .446 1 1s-.446 1-1 1-1-.446-1-1 .446-1 1-1zm7 0h2v2h-2zm-7 8c .554 0 1 .446 1 1s-.446 1-1 1-1-.446-1-1 .446-1 1-1zm8 1h1v1h-1z" fill="#04896a" transform=""/></svg>
