<?xml version="1.0" encoding="UTF-8" standalone="no"?>
<!-- Created with Inkscape (http://www.inkscape.org/) -->
<svg id="svg3049" xmlns:rdf="http://www.w3.org/1999/02/22-rdf-syntax-ns#" xmlns="http://www.w3.org/2000/svg" height="16" viewBox="0 0 16 16" width="16" version="1.1" xmlns:cc="http://creativecommons.org/ns#" xmlns:dc="http://purl.org/dc/elements/1.1/">
 <g id="layer1" transform="translate(-421.71 -531.79)">
  <g id="layer1-0" transform="translate(420.71 -503.57)">
   <path id="circle4170" d="m3 7v2c5.5228 0 10 4.4772 10 10h2c0-6.627-5.3726-12-12-12zm0 4v2c3.3137 0 6 2.6863 6 6h2c0.000009-4.4183-3.5817-8-8-8zm1.5 5c-0.8284 0-1.5 0.672-1.5 1.5s0.6716 1.5 1.5 1.5 1.5-0.672 1.5-1.5-0.6716-1.5-1.5-1.5z" transform="translate(0 1030.4)" fill="#4d4d4d"/>
  </g>
 </g>
</svg>
