<?xml version="1.0" encoding="UTF-8" standalone="no"?>
<!-- Created with Inkscape (http://www.inkscape.org/) -->
<svg id="svg3049" xmlns:rdf="http://www.w3.org/1999/02/22-rdf-syntax-ns#" xmlns="http://www.w3.org/2000/svg" height="16" width="16" version="1.1" xmlns:cc="http://creativecommons.org/ns#" xmlns:dc="http://purl.org/dc/elements/1.1/">
 <g id="layer1" transform="translate(-421.71 -531.79)" fill="#4d4d4d">
  <circle id="path4221" cx="427.21" cy="538.29" r="2.5"/>
  <circle id="path4221-8" cx="433.21" cy="536.29" r="2.5"/>
  <path id="path4276" d="m5.5 10a3.5 4 0 0 0 -3.5 4h1 5 1a3.5 4 0 0 0 -3.5 -4zm0 1a2.5 3 0 0 1 2.3535 2h-4.707a2.5 3 0 0 1 2.3535 -2z" transform="translate(421.71 531.79)"/>
  <path id="path4276-1" d="m11.646 8a3.5 4 0 0 0 -3.1538 2.273 4.5 5 0 0 1 1.125 1.727h4.5288 1a3.5 4 0 0 0 -3.5 -4zm0 1a2.5 3 0 0 1 2.354 2h-4.707a2.5 3 0 0 1 2.353 -2z" transform="translate(421.71 531.79)"/>
 </g>
</svg>
