<?xml version="1.0" encoding="UTF-8" standalone="no"?>
<!-- Created with Inkscape (http://www.inkscape.org/) -->
<svg id="svg3049" xmlns:rdf="http://www.w3.org/1999/02/22-rdf-syntax-ns#" xmlns="http://www.w3.org/2000/svg" height="16" width="16" version="1.1" xmlns:cc="http://creativecommons.org/ns#" xmlns:dc="http://purl.org/dc/elements/1.1/">
 <g id="layer1" transform="translate(-421.71 -531.79)">
  <g fill="#4d4d4d">
   <rect id="rect4035" height="11" width="0" y="534.79" x="404.71"/>
   <rect id="rect4035-5" height="11" width="0" y="532.74" x="422.76"/>
   <rect id="rect4035-8" height="11" width="0" y="534.79" x="404.71"/>
   <rect id="rect4035-59" height="11" width="0" y="534.79" x="404.71"/>
  </g>
  <text id="text3781" style="word-spacing:0px;letter-spacing:0px" line-height="125%" font-size="9px" y="547.54797" x="420.15027" font-family="Sans" xml:space="preserve" fill="#000000"><tspan id="tspan3783" x="420.15027" y="547.54797"/></text>
  <text id="text3781-8" style="word-spacing:0px;letter-spacing:0px" line-height="125%" font-size="9px" y="541.68463" x="420.88696" font-family="Sans" xml:space="preserve" fill="#000000"><tspan id="tspan3783-1" x="420.88696" y="541.68463"/></text>
  <path id="rect4082" d="m2 2v11.281 0.719h12v-1-1-1-1-8h-12zm1 1h10v6l-2-2-3.3438 3.344-1.3437-1.344h-0.0313l-3.2812 3.281v-9.281zm3 1c-1.1046 0-2 0.8954-2 2s0.8954 2 2 2 2-0.8954 2-2-0.8954-2-2-2z" transform="translate(421.71 531.79)" fill="#4d4d4d"/>
 </g>
</svg>
