<?xml version="1.0" encoding="UTF-8" standalone="no"?>
<!-- Created with Inkscape (http://www.inkscape.org/) -->
<svg id="svg3049" xmlns:rdf="http://www.w3.org/1999/02/22-rdf-syntax-ns#" xmlns="http://www.w3.org/2000/svg" height="16" width="16" version="1.1" xmlns:cc="http://creativecommons.org/ns#" xmlns:dc="http://purl.org/dc/elements/1.1/">
 <g id="layer1" fill="#4d4d4d" transform="translate(-421.71 -531.79)">
  <path id="path4141" d="m8 2v0.002c-1.9997 0-3 1.4895-3 3.2988 0 1.9495 2 5.6992 2 5.6992h2s2-3.7516 2-5.7012c0-1.8092-1-3.2988-3-3.2988zm0 1c1.3335 0 2 1.1592 2 2.5664 0 1.5163-1.334 4.4336-1.334 4.4336h-1.332s-1.334-2.9173-1.334-4.4336c0-1.4072 0.6669-2.5644 2-2.5644v-0.002z" transform="translate(421.71 531.79)"/>
  <rect id="rect4311" height="1" width="2" y="543.79" x="428.71"/>
  <circle id="path4313" cx="429.71" cy="544.79" r=".99999"/>
 </g>
</svg>
