<?xml version="1.0" encoding="UTF-8" standalone="no"?>
<!-- Created with Inkscape (http://www.inkscape.org/) -->
<svg id="svg2" xmlns:rdf="http://www.w3.org/1999/02/22-rdf-syntax-ns#" xmlns="http://www.w3.org/2000/svg" height="16" viewBox="0 0 16 16" width="16" version="1.1" xmlns:cc="http://creativecommons.org/ns#" xmlns:dc="http://purl.org/dc/elements/1.1/">
 <g id="layer1" transform="translate(-3 -1033.4)">
  <path id="rect4161" d="m4 7c-0.554 0-1 0.446-1 1v6c0 0.55401 0.44599 1 1 1h5c0.55401 0 1-0.44599 1-1v-1h2v1c0 0.554 0.44599 1 1 1h5c0.55401 0 1-0.446 1-1v-6c0-0.554-0.446-1-1-1h-5c-0.55401 0-1 0.446-1 1v1h-2v-1c0-0.554-0.446-1-1-1zm0 1h3 2v1c-0.554 0-1 0.446-1 1v2c0 0.55401 0.44599 1 1 1v1h-2-3zm9 0h3 2v6h-2-3v-1c0.55401 0 1-0.44599 1-1v-2c0-0.554-0.446-1-1-1zm-4 2h4v2h-4z" transform="translate(0 1030.4)" fill="#4d4d4d"/>
 </g>
</svg>
