<?xml version="1.0" encoding="UTF-8" standalone="no"?>
<svg id="svg2" xmlns:rdf="http://www.w3.org/1999/02/22-rdf-syntax-ns#" xmlns="http://www.w3.org/2000/svg" height="16" viewBox="0 0 16 16" width="16" version="1.1" xmlns:cc="http://creativecommons.org/ns#" xmlns:dc="http://purl.org/dc/elements/1.1/">
 <g id="layer1" transform="translate(0 -1036.4)" fill="#cf000f">
  <path id="rect4136" d="m8 1038.4c-1.662 0-3 1.338-3 3v3h-2v0.75 5.25h10v-6h-2v-3c0-1.662-1.338-3-3-3zm0 1c1.2465 0 2 0.5458 2 2v3h-4v-3c0-1.4542 0.75351-2 2-2zm-4 6h8v4h-8z"/>
  <path id="path4158" d="m4.019 10.999v-1.973h3.9775 3.9775v1.973 1.973h-3.9775-3.9775v-1.973z" transform="translate(0 1036.4)"/>
 </g>
</svg>
