<?xml version="1.0" encoding="UTF-8" standalone="no"?>
<!-- Created with Inkscape (http://www.inkscape.org/) -->
<svg id="svg3049" xmlns:rdf="http://www.w3.org/1999/02/22-rdf-syntax-ns#" xmlns="http://www.w3.org/2000/svg" height="16" viewBox="0 0 16 16" width="16" version="1.1" xmlns:cc="http://creativecommons.org/ns#" xmlns:dc="http://purl.org/dc/elements/1.1/">
 <g id="layer1" transform="translate(-421.71 -531.79)">
  <path id="path14" d="m10.5 2a2.5 2.5 0 0 0 -2.4492 2h-6.0508v1h6.0547a2.5 2.5 0 0 0 2.4453 2 2.5 2.5 0 0 0 2.449 -2h1.051v-1h-1.055a2.5 2.5 0 0 0 -2.445 -2zm-5 7a2.5 2.5 0 0 0 -2.4453 2h-1.0547v1h1.0508a2.5 2.5 0 0 0 2.4492 2 2.5 2.5 0 0 0 2.4453 -2h6.0547v-1h-6.0508a2.5 2.5 0 0 0 -2.4492 -2zm0 1a1.5 1.5 0 0 1 1.4121 1 1.5 1.5 0 0 1 0.043 0.143 1.5 1.5 0 0 1 0.0293 0.144 1.5 1.5 0 0 1 0 0.004 1.5 1.5 0 0 1 0.0019 0.016 1.5 1.5 0 0 1 0.0117 0.127 1.5 1.5 0 0 1 0 0.005 1.5 1.5 0 0 1 0.002 0.061 1.5 1.5 0 0 1 -0.0078 0.15 1.5 1.5 0 0 1 -0.0801 0.35 1.5 1.5 0 0 1 -1.4121 1 1.5 1.5 0 0 1 -1.4121 -1 1.5 1.5 0 0 1 -0.043 -0.143 1.5 1.5 0 0 1 -0.0293 -0.144 1.5 1.5 0 0 1 -0.0019 -0.02 1.5 1.5 0 0 1 -0.0117 -0.127 1.5 1.5 0 0 1 -0.002 -0.066 1.5 1.5 0 0 1 0.0078 -0.15 1.5 1.5 0 0 1 0.0801 -0.35 1.5 1.5 0 0 1 1.4121 -1z" transform="translate(421.71 531.79)" fill="#4d4d4d"/>
 </g>
</svg>
