<?xml version="1.0" encoding="UTF-8" standalone="no"?>
<svg id="svg3049" xmlns:rdf="http://www.w3.org/1999/02/22-rdf-syntax-ns#" xmlns="http://www.w3.org/2000/svg" height="16" width="16" version="1.1" xmlns:cc="http://creativecommons.org/ns#" xmlns:dc="http://purl.org/dc/elements/1.1/">
 <g id="layer1" transform="translate(-421.71 -531.79)">
  <g id="layer1-0" transform="matrix(.75 0 0 0.75 421.46 -241.23)">
   <g id="layer1-6" transform="translate(6.2938e-7 -.00020410)">
    <path id="path8579-9" style="block-progression:tb;text-indent:0;color:#000000;text-transform:none" d="m8 2c-1.1088 0-2.1401 0.3193-3.0312 0.8438l0.5624 0.5624 0.1876 0.1876 1.9374 1.9374 0.7188-0.7187-1.625-1.625c0.1953-0.0511 0.3899-0.0977 0.5938-0.125 0.0524-0.0078 0.1032-0.0252 0.1562-0.0313 0.1681-0.017 0.3274-0.0312 0.5-0.0312 2.761 0 5 2.2386 5 5 0 0.243-0.028 0.4855-0.062 0.7188-0.02 0.1362-0.032 0.2738-0.063 0.4062-0.067 0.2866-0.167 0.5476-0.281 0.8125-0.014 0.0307-0.018 0.0635-0.032 0.0935-0.04 0.092-0.108 0.164-0.156 0.25-0.004 0.008 0.005 0.023 0 0.031l0.75 0.719c0.525-0.891 0.844-1.9222 0.844-3.031 0-3.3137-2.686-6-6-6zm-5.1562 2.9688c-0.5245 0.8911-0.8438 1.9224-0.8438 3.0312 0 3.314 2.6863 6 6 6 1.1088 0 2.14-0.319 3.031-0.844l-0.562-0.562-0.188-0.188-1.9372-1.906-0.6876 0.688 1.5938 1.624c-0.1953 0.052-0.3899 0.098-0.5938 0.126-0.0524 0.007-0.1032 0.025-0.1562 0.031-0.1681 0.017-0.3274 0.031-0.5 0.031s-0.3319-0.014-0.5-0.031-0.3373-0.029-0.5-0.063c-2.2784-0.466-4-2.49-4-4.906 0-0.2483 0.0276-0.4802 0.0625-0.7188 0.02-0.1362 0.0318-0.2738 0.0625-0.4062 0.067-0.2866 0.1666-0.5476 0.2812-0.8125 0.013-0.0307 0.0177-0.0633 0.0313-0.0937 0.0406-0.0889 0.1086-0.1648 0.1563-0.25v-0.0313l-0.75-0.7187z" transform="matrix(1.3333 0 0 1.3333 .33333 1030.7)" fill="#4d4d4d"/>
   </g>
  </g>
 </g>
</svg>
