<?xml version="1.0" encoding="UTF-8" standalone="no"?>
<!-- Created with Inkscape (http://www.inkscape.org/) -->
<svg id="svg3049" xmlns:rdf="http://www.w3.org/1999/02/22-rdf-syntax-ns#" xmlns="http://www.w3.org/2000/svg" height="16" width="16" version="1.1" xmlns:cc="http://creativecommons.org/ns#" xmlns:dc="http://purl.org/dc/elements/1.1/">
 <g id="layer1" transform="translate(-421.71 -531.79)">
  <path id="path4876" style="color:#000000" d="m8 2c-3.3137 0-6 2.6863-6 6 0 3.314 2.6863 6 6 6 3.314 0 6-2.686 6-6 0-3.3137-2.686-6-6-6zm0 1c2.761 0 5 2.2386 5 5 0 2.761-2.239 5-5 5-2.7614 0-5-2.239-5-5 0-2.7614 2.2386-5 5-5zm-1 1v4 1h5v-1h-4v-4h-1z" transform="translate(421.71 531.79)" fill="#4d4d4d"/>
 </g>
</svg>
