<?xml version="1.0" encoding="UTF-8" standalone="no"?>
<svg id="svg2" xmlns:rdf="http://www.w3.org/1999/02/22-rdf-syntax-ns#" xmlns="http://www.w3.org/2000/svg" height="16" viewBox="0 0 16 16" width="16" version="1.1" xmlns:cc="http://creativecommons.org/ns#" xmlns:dc="http://purl.org/dc/elements/1.1/">
 <g id="layer1" transform="translate(0 -1036.4)" fill="#04896a">
  <path id="rect4031" d="m2 2v1 10 1h1 11v-1-11h-11-1zm1 1h10v2h-10v-2zm0 3h2v3h-2v-3zm3 0h4v3h-4v-3zm5 0h2v3h-2v-3zm-8 4h2v3h-2v-3zm3 0h4v3h-4v-3zm5 0h2v3h-2v-3z" transform="translate(0 1036.4)"/>
  <rect id="rect4035" transform="translate(0 1036.4)" height="11" width="0" y="3" x="3"/>
 </g>
</svg>
