<?xml version="1.0" encoding="UTF-8" standalone="no"?>
<svg
   xmlns:dc="http://purl.org/dc/elements/1.1/"
   xmlns:cc="http://creativecommons.org/ns#"
   xmlns:rdf="http://www.w3.org/1999/02/22-rdf-syntax-ns#"
   xmlns:svg="http://www.w3.org/2000/svg"
   xmlns="http://www.w3.org/2000/svg"
   xmlns:sodipodi="http://sodipodi.sourceforge.net/DTD/sodipodi-0.dtd"
   xmlns:inkscape="http://www.inkscape.org/namespaces/inkscape"
   id="svg3049"
   height="16"
   width="16"
   version="1.1"
   inkscape:version="0.91 r13725"
   sodipodi:docname="unlocked_green.svg">
  <metadata
     id="metadata8">
    <rdf:RDF>
      <cc:Work
         rdf:about="">
        <dc:format>image/svg+xml</dc:format>
        <dc:type
           rdf:resource="http://purl.org/dc/dcmitype/StillImage" />
        <dc:title></dc:title>
      </cc:Work>
    </rdf:RDF>
  </metadata>
  <defs
     id="defs6" />
  <sodipodi:namedview
     pagecolor="#ffffff"
     bordercolor="#666666"
     borderopacity="1"
     objecttolerance="10"
     gridtolerance="10"
     guidetolerance="10"
     inkscape:pageopacity="0"
     inkscape:pageshadow="2"
     inkscape:window-width="1280"
     inkscape:window-height="995"
     id="namedview4"
     showgrid="true"
     inkscape:zoom="31.62"
     inkscape:cx="6.7681082"
     inkscape:cy="4.7701091"
     inkscape:window-x="0"
     inkscape:window-y="0"
     inkscape:window-maximized="1"
     inkscape:current-layer="svg3049"
     showguides="true">
    <inkscape:grid
       type="xygrid"
       id="grid4166" />
  </sodipodi:namedview>
  <path
     style="fill:#008000;fill-opacity:1"
     d="M 4.953125 4.9785156 A 2.9171546 2.9171546 0 0 0 2.0371094 7.8945312 A 2.9171546 2.9171546 0 0 0 4.953125 10.8125 A 2.9171546 2.9171546 0 0 0 7.8710938 7.8945312 A 2.9171546 2.9171546 0 0 0 4.953125 4.9785156 z M 4.96875 6.2109375 A 1.6698577 1.6698577 0 0 1 6.6367188 7.8808594 A 1.6698577 1.6698577 0 0 1 4.96875 9.5507812 A 1.6698577 1.6698577 0 0 1 3.2988281 7.8808594 A 1.6698577 1.6698577 0 0 1 4.96875 6.2109375 z "
     id="path4133" />
  <rect
     style="fill:#008000;fill-opacity:1"
     id="rect4140"
     width="6.2202201"
     height="1.5237452"
     x="7.6604724"
     y="7.0871344" />
  <rect
     style="fill:#008000;fill-opacity:1"
     id="rect4144"
     width="2.524379"
     height="2.5620334"
     x="11.356312"
     y="8.574543" />
</svg>
