<?xml version="1.0" encoding="UTF-8" standalone="no"?>
<svg id="svg3049" xmlns:rdf="http://www.w3.org/1999/02/22-rdf-syntax-ns#" xmlns="http://www.w3.org/2000/svg" height="16" width="16" version="1.1" xmlns:cc="http://creativecommons.org/ns#" xmlns:dc="http://purl.org/dc/elements/1.1/">
 <g fill="#008000">
  <path id="path4133" d="m4.9531 4.9785a2.9172 2.9172 0 0 0 -2.916 2.916 2.9172 2.9172 0 0 0 2.916 2.9175 2.9172 2.9172 0 0 0 2.918 -2.9175 2.9172 2.9172 0 0 0 -2.918 -2.916zm0.0157 1.2324a1.6699 1.6699 0 0 1 1.6679 1.67 1.6699 1.6699 0 0 1 -1.6679 1.6699 1.6699 1.6699 0 0 1 -1.67 -1.6699 1.6699 1.6699 0 0 1 1.67 -1.67z"/>
  <rect id="rect4140" height="1.5237" width="6.2202" y="7.0871" x="7.6605"/>
  <rect id="rect4144" height="2.562" width="2.5244" y="8.5745" x="11.356"/>
 </g>
</svg>
