<?xml version="1.0" encoding="UTF-8" standalone="no"?>
<svg id="svg3049" xmlns:rdf="http://www.w3.org/1999/02/22-rdf-syntax-ns#" xmlns="http://www.w3.org/2000/svg" height="16" width="16" version="1.1" xmlns:cc="http://creativecommons.org/ns#" xmlns:xlink="http://www.w3.org/1999/xlink" xmlns:dc="http://purl.org/dc/elements/1.1/">
 <g id="layer1" transform="translate(-421.71 -531.79)">
  <g id="layer1-0" transform="matrix(.75 0 0 0.75 421.46 -241.23)">
   <g id="layer1-6" transform="translate(6.2938e-7 -.00020410)">
    <path id="rect3044" style="color:#000000" d="m8 2c-1.6569 0-3 1.3431-3 3v1h1v-1c0-1.1046 0.8954-2 2-2s2 0.8954 2 2v3h-3-1-1-2v6h10v-6h-2v-3c0-1.6569-1.3431-3-3-3zm-4 7h8v4h-8v-4z" transform="matrix(1.3333 0 0 1.3333 .33333 1030.7)" fill="#4d4d4d"/>
   </g>
  </g>
 </g>
</svg>
