<?xml version="1.0" encoding="UTF-8" standalone="no"?>
<svg id="svg3049" xmlns:rdf="http://www.w3.org/1999/02/22-rdf-syntax-ns#" xmlns="http://www.w3.org/2000/svg" height="16" viewBox="0 0 16 16" width="16" version="1.1" xmlns:cc="http://creativecommons.org/ns#" xmlns:dc="http://purl.org/dc/elements/1.1/">
 <g id="layer1" transform="translate(-421.71 -531.79)">
  <path id="path16" d="m429.71 533.79a3 3 0 0 0 -3 3 3 3 0 0 0 3 3 3 3 0 0 0 3 -3 3 3 0 0 0 -3 -3zm0 1a2 2 0 0 1 2 2 2 2 0 0 1 -2 2 2 2 0 0 1 -2 -2 2 2 0 0 1 2 -2zm0 6a5 4.5 0 0 0 -5 4.5 5 4.5 0 0 0 0.0332 0.5h9.9297a5 4.5 0 0 0 0.0371 -0.5 5 4.5 0 0 0 -5 -4.5zm0 1a4 3.5 0 0 1 3.9551 3h-7.9102a4 3.5 0 0 1 3.9551 -3z" fill="#4d4d4d"/>
 </g>
</svg>
