<?xml version="1.0" encoding="UTF-8" standalone="no"?>
<svg id="svg2" xmlns:rdf="http://www.w3.org/1999/02/22-rdf-syntax-ns#" xmlns="http://www.w3.org/2000/svg" height="16" viewBox="0 0 16 16" width="16" version="1.1" xmlns:cc="http://creativecommons.org/ns#" xmlns:dc="http://purl.org/dc/elements/1.1/">
 <g id="layer1" transform="translate(0 -1036.4)" fill="#f62459">
  <rect id="rect4035" height="11" width="0" y="1039.4" x="-17"/>
  <path id="rect4074" d="m2 1038.4v12h12v-12h-12zm3 1h6v4h-6v-4zm-2 1h1v1h-1v-1zm9 0h1v1h-1v-1zm-9 3.5h1v1h-1v-1zm9 0h1v1h-1v-1zm-7 1.5h6v4h-6v-4zm-2 2h1v1h-1v-1zm9 0h1v1h-1v-1z"/>
 </g>
</svg>
