<?xml version="1.0" encoding="UTF-8" standalone="no"?>
<svg id="svg3049" xmlns:rdf="http://www.w3.org/1999/02/22-rdf-syntax-ns#" xmlns="http://www.w3.org/2000/svg" height="16" width="16" version="1.1" xmlns:cc="http://creativecommons.org/ns#" xmlns:xlink="http://www.w3.org/1999/xlink" xmlns:dc="http://purl.org/dc/elements/1.1/">
 <g id="layer1" transform="translate(-421.71 -531.79)">
  <g id="layer1-0" transform="matrix(.75 0 0 0.75 421.46 -241.23)">
   <g id="layer1-6" transform="translate(6.2938e-7 -.00020410)">
    <path id="rect4170" d="m13.314 2l-11.314 11.295 0.7148 0.705 11.285-11.303-0.686-0.697zm-5.314 1a9 9 0 0 0 -7.877 4.668c0.12899 0.3637 0.35749 0.6766 0.6563 0.9082a8 8 0 0 1 7.2207 -4.5762 4 4 0 0 0 -4 4 4 4 0 0 0 0.1055 0.8945l0.8945-0.8945a3 3 0 0 1 3 -3l0.8926-0.8926a4 4 0 0 0 -0.543 -0.0898 8 8 0 0 1 0.5781 0.0547l0.8789-0.8789a9 9 0 0 0 -1.8066 -0.1934zm5.836 2.1641l-0.715 0.7148a8 8 0 0 1 2.1 2.6973c0.301-0.2337 0.532-0.5501 0.66-0.918a9 9 0 0 0 -2.045 -2.4941zm-1.941 1.9414l-0.895 0.8945a3 3 0 0 1 -3 3l-0.8926 0.893a4 4 0 0 0 0.8926 0.107 4 4 0 0 0 4 -4 4 4 0 0 0 -0.105 -0.8945z" transform="matrix(1.3333 0 0 1.3333 .33333 1030.7)" fill="#4d4d4d"/>
   </g>
  </g>
 </g>
</svg>
