<?xml version="1.0" encoding="UTF-8" standalone="no"?>
<svg id="svg3049" xmlns:rdf="http://www.w3.org/1999/02/22-rdf-syntax-ns#" xmlns="http://www.w3.org/2000/svg" height="16" width="16" version="1.1" xmlns:cc="http://creativecommons.org/ns#" xmlns:xlink="http://www.w3.org/1999/xlink" xmlns:dc="http://purl.org/dc/elements/1.1/">
 <g id="layer1" transform="translate(-421.71 -531.79)">
  <g id="layer1-0" transform="matrix(.75 0 0 0.75 421.46 -241.23)">
   <g id="layer1-6" transform="translate(6.2938e-7 -.00020410)">
    <path id="rect4170" d="m8 3a9 9 0 0 0 -7.877 4.668c0.12899 0.3637 0.35749 0.6766 0.6563 0.9082a8 8 0 0 1 7.2207 -4.5762 4 4 0 0 0 -4 4 4 4 0 0 0 4 4 4 4 0 0 0 4 -4 4 4 0 0 0 -3.6504 -3.9824 8 8 0 0 1 6.8714 4.5586c0.301-0.2337 0.532-0.5501 0.66-0.918a9 9 0 0 0 -7.881 -4.6582zm0 2a3 3 0 0 1 3 3 3 3 0 0 1 -3 3 3 3 0 0 1 -3 -3 3 3 0 0 1 3 -3zm0 1a2 2 0 0 0 -2 2 2 2 0 0 0 2 2 2 2 0 0 0 2 -2 2 2 0 0 0 -0.0898 -0.5879 1 1 0 0 1 -0.9102 0.5879 1 1 0 0 1 -1 -1 1 1 0 0 1 0.5898 -0.9102 2 2 0 0 0 -0.5898 -0.0898z" transform="matrix(1.3333 0 0 1.3333 .33333 1030.7)" fill="#4d4d4d"/>
   </g>
  </g>
 </g>
</svg>
