<?xml version="1.0" encoding="UTF-8" standalone="no"?>
<svg id="svg3049" xmlns:rdf="http://www.w3.org/1999/02/22-rdf-syntax-ns#" xmlns="http://www.w3.org/2000/svg" height="16" width="16" version="1.1" xmlns:cc="http://creativecommons.org/ns#" xmlns:dc="http://purl.org/dc/elements/1.1/">
 <g id="layer1" transform="translate(-421.71 -531.79)">
  <path id="rect4556" d="m8.5 2c-1.3807 0-2.5 1.1193-2.5 2.5v6.0352h0.00195c0.019 0.814 0.6839 1.464 1.498 1.465 0.8284 0 1.5-0.672 1.5-1.5v-5.5h-1v5.5c0 0.276-0.2239 0.5-0.5 0.5s-0.5-0.224-0.5-0.5v-6c0-0.8284 0.6716-1.5 1.5-1.5s1.5 0.6716 1.5 1.5v6c0 1.381-1.1193 2.5-2.5 2.5s-2.5-1.119-2.5-2.5v-6.5h-1v6.5c0 1.933 1.567 3.5 3.5 3.5 1.933 0.000008 3.5-1.567 3.5-3.5v-6.0352h-0.002c-0.019-1.3662-1.1317-2.4639-2.498-2.4648z" fill-rule="evenodd" transform="translate(421.71 531.79)" fill="#4d4d4d"/>
 </g>
</svg>
