<?xml version="1.0" encoding="UTF-8" standalone="no"?>
<svg id="svg2" xmlns:rdf="http://www.w3.org/1999/02/22-rdf-syntax-ns#" xmlns="http://www.w3.org/2000/svg" height="16" viewBox="0 0 16 16" width="16" version="1.1" xmlns:cc="http://creativecommons.org/ns#" xmlns:dc="http://purl.org/dc/elements/1.1/">
 <g id="layer1" transform="translate(0 -1036.4)">
  <path id="path3763" d="m5 2v1 7.281c-0.2945-0.171-0.635-0.281-1-0.281-1.1046 0-2 0.895-2 2s0.8954 2 2 2 2-0.895 2-2v-7h7v4.2812c-0.295-0.1707-0.635-0.2812-1-0.2812-1.105 0-2 0.8954-2 2 0 1.105 0.895 2 2 2s2-0.895 2-2v-8-1h-9zm1 1h7v1h-7v-1z" transform="translate(0 1036.4)" fill="#6c7a89"/>
 </g>
</svg>
