<?xml version="1.0" encoding="UTF-8" standalone="no"?>
<svg id="svg3049" xmlns:rdf="http://www.w3.org/1999/02/22-rdf-syntax-ns#" xmlns="http://www.w3.org/2000/svg" height="16" width="16" version="1.1" xmlns:cc="http://creativecommons.org/ns#" xmlns:dc="http://purl.org/dc/elements/1.1/">
 <g id="layer1" transform="translate(-421.71 -531.79)">
  <g fill="#4d4d4d">
   <rect id="rect4035" height="11" width="0" y="533.89" x="398.04"/>
   <rect id="rect4035-5" height="11" width="0" y="531.84" x="416.08"/>
   <rect id="rect4035-8" height="11" width="0" y="533.89" x="398.04"/>
   <rect id="rect4035-59" height="11" width="0" y="533.89" x="398.04"/>
   <text id="text3781" style="word-spacing:0px;letter-spacing:0px" line-height="125%" font-size="9px" y="546.64935" x="413.47781" font-family="Sans" xml:space="preserve"><tspan id="tspan3783" x="413.47781" y="546.64935"/></text>
   <text id="text3781-8" style="word-spacing:0px;letter-spacing:0px" line-height="125%" font-size="9px" y="540.78601" x="414.21451" font-family="Sans" xml:space="preserve"><tspan id="tspan3783-1" x="414.21451" y="540.78601"/></text>
   <rect id="rect4035-4" height="11" width="0" y="533.79" x="404.71"/>
   <rect id="rect4035-5-7" height="11" width="0" y="531.74" x="422.76"/>
   <rect id="rect4035-8-9" height="11" width="0" y="533.79" x="404.71"/>
   <rect id="rect4035-59-5" height="11" width="0" y="533.79" x="404.71"/>
  </g>
  <g font-size="9px" font-family="Sans" fill="#000000">
   <text id="text3781-6" style="word-spacing:0px;letter-spacing:0px" line-height="125%" y="546.54797" x="420.15027" xml:space="preserve"><tspan id="tspan3783-7" x="420.15027" y="546.54797"/></text>
   <text id="text3781-8-2" style="word-spacing:0px;letter-spacing:0px" line-height="125%" y="540.68463" x="420.88696" xml:space="preserve"><tspan id="tspan3783-1-6" x="420.88696" y="540.68463"/></text>
   <text id="text3781-4" style="word-spacing:0px;letter-spacing:0px" line-height="125%" y="547.54797" x="414.15027" xml:space="preserve"><tspan id="tspan3783-13" x="414.15027" y="547.54797"/></text>
  </g>
  <path id="rect4151" d="m431.42 540.82-0.70703 0.70703 1.793 1.793-1.793 1.793 0.70703 0.70703 1.793-1.793 1.793 1.793 0.70703-0.70703-1.793-1.793 1.793-1.793-0.70703-0.70703-1.793 1.793-1.793-1.793z" fill="#da4453"/>
  <path id="rect4112" d="m4 2v1 7 1 1 2l4-1.594v-1l-3 1.188v-1.59-0.004-1-7h6v5h1v-5-1h-1-6-1z" transform="translate(421.71 531.79)" fill="#4d4d4d"/>
 </g>
</svg>
