<?xml version="1.0" encoding="UTF-8" standalone="no"?>
<svg id="svg3049" xmlns:rdf="http://www.w3.org/1999/02/22-rdf-syntax-ns#" xmlns="http://www.w3.org/2000/svg" height="16" width="16" version="1.1" xmlns:cc="http://creativecommons.org/ns#" xmlns:dc="http://purl.org/dc/elements/1.1/">
 <defs id="defs3051">
  <style id="current-color-scheme" type="text/css">.ColorScheme-Text {
        color:#4d4d4d;
      }
      .ColorScheme-Background {
        color:#eff0f1;
      }
      .ColorScheme-Highlight {
        color:#3daee9;
      }
      .ColorScheme-ViewText {
        color:#31363b;
      }
      .ColorScheme-ViewBackground {
        color:#fcfcfc;
      }
      .ColorScheme-ViewHover {
        color:#93cee9;
      }
      .ColorScheme-ViewFocus{
        color:#3daee9;
      }
      .ColorScheme-ButtonText {
        color:#31363b;
      }
      .ColorScheme-ButtonBackground {
        color:#eff0f1;
      }
      .ColorScheme-ButtonHover {
        color:#93cee9;
      }
      .ColorScheme-ButtonFocus{
        color:#3daee9;
      }</style>
 </defs>
 <g id="layer1" transform="translate(-421.71 -531.79)">
  <g fill="#4d4d4d">
   <path id="path4147-9" d="m2 2v1 8l3 3v-3h2v-1h-4v-6-1h10v1 3h1v-4-1h-12z" transform="translate(421.71 531.79)"/>
   <rect id="rect4035" height="11" width="0" y="534.79" x="404.71"/>
   <rect id="rect4035-5" height="11" width="0" y="532.74" x="422.76"/>
   <rect id="rect4035-8" height="11" width="0" y="534.79" x="404.71"/>
   <rect id="rect4035-59" height="11" width="0" y="534.79" x="404.71"/>
  </g>
  <g font-size="9px" font-family="Sans" fill="#000000">
   <text id="text3781" style="word-spacing:0px;letter-spacing:0px" line-height="125%" y="547.54797" x="420.15027" xml:space="preserve"><tspan id="tspan3783" x="420.15027" y="547.54797"/></text>
   <text id="text3781-8" style="word-spacing:0px;letter-spacing:0px" line-height="125%" y="541.68463" x="420.88696" xml:space="preserve"><tspan id="tspan3783-1" x="420.88696" y="541.68463"/></text>
   <text id="text3781-4" style="word-spacing:0px;letter-spacing:0px" line-height="125%" y="548.54797" x="414.15027" xml:space="preserve"><tspan id="tspan3783-13" x="414.15027" y="548.54797"/></text>
  </g>
  <path id="rect4126" d="m430.7 539.79-0.99023 0.9902 2.0098 2.0098-2.0098 2.0098 0.99023 0.9902 2.0098-2.0098 2.0098 2.0098 0.99024-0.9902-2.0098-2.0098 2.0098-2.0098-0.99024-0.9902-2.0098 2.0098-2.0098-2.0098z" fill="#da4453"/>
 </g>
</svg>
