<?xml version="1.0" encoding="UTF-8" standalone="no"?>
<svg id="svg2" xmlns:rdf="http://www.w3.org/1999/02/22-rdf-syntax-ns#" xmlns="http://www.w3.org/2000/svg" height="16" viewBox="0 0 16 16" width="16" version="1.1" xmlns:cc="http://creativecommons.org/ns#" xmlns:dc="http://purl.org/dc/elements/1.1/">
 <g id="layer1" transform="translate(0 -1036.4)">
  <path id="rect4139" style="color-rendering:auto;color:#000000;isolation:auto;mix-blend-mode:normal;shape-rendering:auto;solid-color:#000000;image-rendering:auto" d="m4 2c-1.108 0-2 0.892-2 2s0.892 2 2 2c0.503 0 0.9559-0.1897 1.3066-0.4941 0.4308 0.7341 0.6934 1.5773 0.6934 2.4941s-0.2626 1.76-0.6934 2.494c-0.3507-0.304-0.8036-0.494-1.3066-0.494-1.108 0-2 0.892-2 2s0.892 2 2 2c0.7411 0 1.379-0.404 1.7246-1h5.2754v1h3v-3h-3v1h-5c0-0.197-0.0373-0.383-0.0898-0.562 0.6834-0.973 1.0898-2.1539 1.0898-3.438 0-1.2799-0.4166-2.4473-1.0957-3.418 0.0563-0.1852 0.0957-0.3778 0.0957-0.582h4v2h4v-4h-4v1h-4.2754c-0.3456-0.5958-0.9835-1-1.7246-1zm0 1c0.554 0 1 0.446 1 1s-0.446 1-1 1-1-0.446-1-1 0.446-1 1-1zm7 0h2v2h-2v-2zm-7 8c0.554 0 1 0.446 1 1s-0.446 1-1 1-1-0.446-1-1 0.446-1 1-1zm8 1h1v1h-1v-1z" transform="translate(0 1036.4)" fill="#04896a"/>
 </g>
</svg>
