<?xml version="1.0" encoding="UTF-8" standalone="no"?>
<svg id="svg3049" xmlns:rdf="http://www.w3.org/1999/02/22-rdf-syntax-ns#" xmlns="http://www.w3.org/2000/svg" height="16" width="16" version="1.1" xmlns:cc="http://creativecommons.org/ns#" xmlns:dc="http://purl.org/dc/elements/1.1/">
 <g id="layer1" transform="translate(-421.71 -531.79)">
  <g id="layer1-0" transform="matrix(.75 0 0 0.75 421.46 -241.23)">
   <text id="text3781" style="word-spacing:0px;letter-spacing:0px" xml:space="preserve" transform="scale(1)" font-size="12px" y="1040.7039" x="5.9146366" font-family="Sans" line-height="125%" fill="#000000"><tspan id="tspan3783" y="1040.7039" x="5.9146366"/></text>
   <g fill="#4d4d4d">
    <path id="rect4079" d="m2 2v1 3 1 6 1h7v-1h-6v-6h10v1h1v-2-1-1h-4.9922l-2-2-0.0078 0.0078v-0.0078h-4-1zm1 1h3.5918l1.002 1h-0.5938v0.0078l-0.0078-0.0078-2 2h-1.9922v-3z" transform="matrix(1.3333 0 0 1.3333 .33333 1030.7)"/>
    <path id="rect3015" style="color:#000000" d="m19.438 1045.1-1.2656-1.2656-2.5052-2.5052-2.5052 2.5052-1.2656 1.2656 0.94271 0.9427 1.2656-1.2656 0.89583-0.8958v2.7812 2.6667h1.3333v-1.3334-1.3333-2.7812l0.89583 0.8958 1.2656 1.2656 0.94271-0.9427z"/>
    <rect id="rect4035" transform="scale(-1,1)" height="14.667" width="0" y="1050.5" x="-85.458"/>
    <rect id="rect4035-5" transform="scale(-1,1)" height="14.667" width="0" y="1047.8" x="-61.404"/>
    <rect id="rect4035-8" transform="scale(-1,1)" height="14.667" width="0" y="1050.5" x="-85.458"/>
    <rect id="rect4035-59" transform="scale(-1,1)" height="14.667" width="0" y="1050.5" x="-85.458"/>
    <g font-size="12px" font-family="Sans">
     <text id="text3781-9" style="word-spacing:0px;letter-spacing:0px" line-height="125%" transform="scale(-1 1)" y="1067.5372" x="-64.877121" xml:space="preserve"><tspan id="tspan3783-5" x="-64.877121" y="1067.5372"/></text>
     <text id="text3781-8" style="word-spacing:0px;letter-spacing:0px" line-height="125%" transform="scale(-1 1)" y="1059.7195" x="-63.894863" xml:space="preserve"><tspan id="tspan3783-1" x="-63.894863" y="1059.7195"/></text>
     <text id="text3781-4" style="word-spacing:0px;letter-spacing:0px" line-height="125%" transform="scale(-1 1)" y="1068.8706" x="-72.877129" xml:space="preserve"><tspan id="tspan3783-13" x="-72.877129" y="1068.8706"/></text>
    </g>
    <rect id="rect4035-9" transform="scale(-1,1)" height="14.667" width="0" y="1050.5" x="-85.458"/>
    <rect id="rect4035-5-7" transform="scale(-1,1)" height="14.667" width="0" y="1047.8" x="-61.404"/>
    <rect id="rect4035-9-0" transform="scale(-1,1)" height="14.667" width="0" y="1050.5" x="-112.12"/>
    <rect id="rect4035-5-7-5" transform="scale(-1,1)" height="14.667" width="0" y="1047.8" x="-88.071"/>
    <rect id="rect4035-3" transform="scale(-1,1)" height="14.667" width="0" y="1050.5" x="-85.458"/>
    <rect id="rect4035-5-4" transform="scale(-1,1)" height="14.667" width="0" y="1047.8" x="-61.404"/>
    <rect id="rect4035-8-7" transform="scale(-1,1)" height="14.667" width="0" y="1050.5" x="-85.458"/>
    <rect id="rect4035-59-1" transform="scale(-1,1)" height="14.667" width="0" y="1050.5" x="-85.458"/>
    <g font-size="12px" font-family="Sans">
     <text id="text3781-1" style="word-spacing:0px;letter-spacing:0px" line-height="125%" transform="scale(-1 1)" y="1067.5372" x="-64.877121" xml:space="preserve"><tspan id="tspan3783-8" x="-64.877121" y="1067.5372"/></text>
     <text id="text3781-8-2" style="word-spacing:0px;letter-spacing:0px" line-height="125%" transform="scale(-1 1)" y="1059.7195" x="-63.894863" xml:space="preserve"><tspan id="tspan3783-1-6" x="-63.894863" y="1059.7195"/></text>
     <text id="text3781-4-7" style="word-spacing:0px;letter-spacing:0px" line-height="125%" transform="scale(-1 1)" y="1068.8706" x="-72.877129" xml:space="preserve"><tspan id="tspan3783-13-8" x="-72.877129" y="1068.8706"/></text>
    </g>
    <rect id="rect4035-9-08" transform="scale(-1,1)" height="14.667" width="0" y="1050.5" x="-85.458"/>
    <rect id="rect4035-5-7-8" transform="scale(-1,1)" height="14.667" width="0" y="1047.8" x="-61.404"/>
    <rect id="rect4035-9-0-2" transform="scale(-1,1)" height="14.667" width="0" y="1050.5" x="-112.12"/>
    <rect id="rect4035-5-7-5-2" transform="scale(-1,1)" height="14.667" width="0" y="1047.8" x="-88.071"/>
    <rect id="rect4035-2" transform="scale(-1,1)" height="14.667" width="0" y="1053.2" x="-91.104"/>
    <rect id="rect4035-5-0" transform="scale(-1,1)" height="14.667" width="0" y="1050.4" x="-67.05"/>
    <rect id="rect4035-8-1" transform="scale(-1,1)" height="14.667" width="0" y="1053.2" x="-91.104"/>
    <rect id="rect4035-59-7" transform="scale(-1,1)" height="14.667" width="0" y="1053.2" x="-91.104"/>
    <g font-size="12px" font-family="Sans">
     <text id="text3781-41" style="word-spacing:0px;letter-spacing:0px" line-height="125%" transform="scale(-1 1)" y="1070.1705" x="-70.522964" xml:space="preserve"><tspan id="tspan3783-9" x="-70.522964" y="1070.1705"/></text>
     <text id="text3781-8-7" style="word-spacing:0px;letter-spacing:0px" line-height="125%" transform="scale(-1 1)" y="1062.3528" x="-69.540703" xml:space="preserve"><tspan id="tspan3783-1-2" x="-69.540703" y="1062.3528"/></text>
     <text id="text3781-4-3" style="word-spacing:0px;letter-spacing:0px" line-height="125%" transform="scale(-1 1)" y="1071.5039" x="-78.522972" xml:space="preserve"><tspan id="tspan3783-13-6" x="-78.522972" y="1071.5039"/></text>
    </g>
    <rect id="rect4035-9-9" transform="scale(-1,1)" height="14.667" width="0" y="1053.2" x="-91.104"/>
    <rect id="rect4035-5-7-9" transform="scale(-1,1)" height="14.667" width="0" y="1050.4" x="-67.05"/>
    <rect id="rect4035-9-0-5" transform="scale(-1,1)" height="14.667" width="0" y="1053.2" x="-117.77"/>
    <rect id="rect4035-5-7-5-3" transform="scale(-1,1)" height="14.667" width="0" y="1050.4" x="-93.716"/>
   </g>
  </g>
 </g>
</svg>
