<?xml version="1.0" encoding="UTF-8" standalone="no"?>
<svg id="svg2" xmlns:rdf="http://www.w3.org/1999/02/22-rdf-syntax-ns#" xmlns="http://www.w3.org/2000/svg" height="16" viewBox="0 0 16 16" width="16" version="1.1" xmlns:cc="http://creativecommons.org/ns#" xmlns:dc="http://purl.org/dc/elements/1.1/">
 <g id="layer1" transform="translate(0 -1036.4)">
  <path id="path26" d="m3.8564 1038.4c-0.162 0.01-0.33601 0-0.52701 0.132-1.704 0.7323-0.56108 2.7413 1.611 4.2706 0.013004-0.2881 0.13307-0.9155 0.13007-1.1916-1.853-1.2688-2.9371-2.504-1.756-2.9937 1.245-0.5162 1.6314 0.8931 1.6534 2.9385 0.116 0.12 0.91959 0.6531 1.0416 0.7372-0.045-1.8654-1.038-3.7694-1.992-3.8774-0.051-0.01-0.107-0.01-0.161-0.01m1.7348 3.2454-0.38773-0.1508-0.32147 0.2163-0.064748 0.6807 0.40605 0.311 0.16851 0.2258c1.25 0.8283 2.315 1.4663 3.716 1.9933l0.87373 0.1296h0.57501c0.53001-0.3121 0.214-0.4322 2.14-0.6722l-2.17 0.168c-1.674-0.6482-3.3823-1.5791-4.9364-2.5947m3.82 2.7152c0.25101 0 2.2094-0.1697 2.9885-0.2417 0.77102-0.1201 1.718-0.1561 1.539 0.7442 0.204-0.4801-0.26084-1.2952-0.92185-1.4392-1.022-0.2281-2.6438 0.3974-3.2268 0.5895m0.93962 0.2495c-0.30401 0.1201-0.99853 0.2069-1.3265 0.3149 0.46501 0.2401 2.7997 1.1011 3.7637 0.921 0.154 0 0.80488-0.4676 0.82088-0.8038-0.05 0.6122-2.9041 0.1561-3.2581-0.4441m0.63501 0.011c-0.25001-0.12-1.4207-0.1141-1.6797-0.2101-1.4667 0.5124-3.4394 1.7154-4.8515 2.5268l-0.40901 0.1201c-0.078868 0.5604-0.42461 0.7534-0.74002 1.1163l0.47801 0.4802 0.37401-0.6122c1.653-0.9963 4.9211-2.606 6.8271-3.3791m-6.8271 3.3791c-0.202 0.12-0.39501 0.2401-0.57801 0.3601-0.42401 1.2016-0.91802 2.0106-1.39 1.9758 0.72902 0.3481 2.2992-1.3673 2.8283-2.9806m-2.8283 2.9806c-1.112-0.6602 1.2418-1.8633 1.7688-2.2126 0.119-0.3361-0.20631-0.893-0.10031-1.2892-1.66 1.0324-2.6415 2.5259-2.0845 3.2341 0.134 0.1681 0.27601 0.2521 0.41701 0.2641m1.6156-2.5151c0.077302-0.3094 1.1027-1.0131 1.2877-1.1212 0.24809-1.9505 0.25991-2.1431 0.47064-3.6594-0.126-0.12-0.90155-0.7238-1.0216-0.8078-0.14892 1.6205-0.429 3.8165-0.82501 5.2833" fill="#cf000f"/>
 </g>
</svg>
