<?xml version="1.0" encoding="UTF-8" standalone="no"?>
<svg id="svg3049" xmlns:rdf="http://www.w3.org/1999/02/22-rdf-syntax-ns#" xmlns="http://www.w3.org/2000/svg" height="16" width="16" version="1.1" xmlns:cc="http://creativecommons.org/ns#" xmlns:dc="http://purl.org/dc/elements/1.1/">
 <g id="layer1" transform="translate(-421.71 -531.79)">
  <g id="layer1-0" transform="matrix(.75 0 0 0.75 421.46 -241.23)">
   <g id="layer1-6" transform="translate(6.2938e-7 -.00020410)">
    <text id="text3781" style="word-spacing:0px;letter-spacing:0px" transform="scale(1)" line-height="125%" xml:space="preserve" font-size="12px" y="1053.0374" x="16.914654" font-family="Sans" fill="#000000"><tspan id="tspan3783" x="16.914654" y="1053.0374"/></text>
    <path id="rect4781" style="color:#000000" d="m4 2v1 2h-1-1v1 5 1h1 2v1 1h5 1v-1-1h2 1v-1-5-1h-2v-2-1h-8zm1 1h6v2h-6v-2zm-2 3h10v5h-1v-1h-8v1h-1v-5zm7 1v1h2v-1h-2zm-4 5h4v1h-4v-1z" transform="matrix(1.3333 0 0 1.3333 .33333 1030.7)" fill="#4d4d4d"/>
   </g>
  </g>
 </g>
</svg>
