<?xml version="1.0" encoding="UTF-8" standalone="no"?>
<svg id="svg3049" xmlns:rdf="http://www.w3.org/1999/02/22-rdf-syntax-ns#" xmlns="http://www.w3.org/2000/svg" height="16" width="16" version="1.1" xmlns:cc="http://creativecommons.org/ns#" xmlns:dc="http://purl.org/dc/elements/1.1/">
 <g id="layer1" transform="translate(-421.71 -531.79)">
  <path id="rect4203" d="m8 2c-3.3137 0-6 2.6863-6 6 0 3.314 2.6863 6 6 6 3.314 0 6-2.686 6-6 0-3.3137-2.686-6-6-6zm0 1c2.761 0 5 2.2386 5 5 0 1.1996-0.452 2.263-1.156 3.125l-6.969-6.9688c0.8616-0.7042 1.9254-1.1562 3.125-1.1562zm-3.8438 1.875l6.9688 6.969c-0.862 0.704-1.9254 1.156-3.125 1.156-2.7614 0-5-2.239-5-5 0-1.1996 0.452-2.2634 1.1562-3.125z" transform="translate(421.71 531.79)" fill="#da4453"/>
 </g>
</svg>
