<?xml version="1.0" encoding="UTF-8" standalone="no"?>
<svg id="svg2" xmlns:rdf="http://www.w3.org/1999/02/22-rdf-syntax-ns#" xmlns="http://www.w3.org/2000/svg" height="16" viewBox="0 0 16 16" width="16" version="1.1" xmlns:cc="http://creativecommons.org/ns#" xmlns:dc="http://purl.org/dc/elements/1.1/">
 <g id="layer1" transform="translate(1 -1029.4)">
  <path id="path4174" d="m11 4v1h9v-1h-9zm0 2v1h6v-1h-6zm0 4v1h9v-1h-9zm0 2v1h2v-1h-2zm0 4v1h9v-1h-9zm0 2v1h6v-1h-6zm7 1v1h2v-1h-2z" transform="translate(-1 1029.4)" fill="#4d4d4d"/>
  <path id="rect2994" style="color:#000000" d="m5 4v1h1v2h-1v1h3v-1h-1v-2h1v-1h-3zm-1 6v1h1v2h-1v1h5v-1h-1v-2h1v-1h-5zm2 1h1v2h-1v-2z" transform="translate(-1 1029.4)" fill="#1d99f3"/>
 </g>
</svg>
