<?xml version="1.0" encoding="UTF-8" standalone="no"?>
<svg id="svg2" xmlns:rdf="http://www.w3.org/1999/02/22-rdf-syntax-ns#" xmlns="http://www.w3.org/2000/svg" height="16" viewBox="0 0 16 16" width="16" version="1.1" xmlns:cc="http://creativecommons.org/ns#" xmlns:dc="http://purl.org/dc/elements/1.1/">
 <g id="layer1" transform="translate(0 -1036.4)">
  <path id="path26" style="color:#000000" d="m8 2c-3.3137 0-6 2.6863-6 6 0 3.314 2.6863 6 6 6 3.314 0 6-2.686 6-6 0-3.3137-2.686-6-6-6zm0 1c0.1726 0 0.3319 0.0142 0.5 0.0312 0.0403 0.004 0.085-0.0049 0.125 0 0.0526 0.0067 0.1042 0.023 0.1562 0.0313 0.1437 0.0226 0.2671 0.0592 0.4063 0.0937 0.2566 0.0633 0.5107 0.1488 0.75 0.25 0.1315 0.0558 0.2495 0.121 0.3745 0.1876 0 0.009 0.001 0.0202 0 0.0312 0.029 0.013 0.045 0.0668 0.094 0.0938 0.018 0.01 0.015 0.0222 0.032 0.0312 0.028 0.016 0.068 0.0335 0.062 0.0625-0.008 0.04-0.066 0.0315-0.094 0.0625 0.004 0.058-0.047 0.0548-0.062 0.0938 0.009 0.025 0.058 0.0324 0.062 0.0624-0.005 0.032-0.074 0.0296-0.062 0.0626 0.054 0.042 0.105 0.01 0.156 0 0.112-0.014 0.212-0.0056 0.281-0.0626-0.009-0.053 0.1-0.0456 0.094-0.0937 0.029 0.0209 0.065 0.0413 0.094 0.0625-0.011 0.0101-0.019 0.0258-0.031 0.0312-0.022 0.01-0.044 0.0193-0.063 0.0313-0.028 0.018-0.062 0.0415-0.094 0.0625-0.023 0.016-0.069 0.0938-0.093 0.0938-0.029 0-0.073-0.0373-0.094-0.0313-0.03 0.01-0.029 0.0505-0.063 0.0625-0.066 0.024-0.196-0.0365-0.219 0.0625 0.028 0.057 0.138 0.0305 0.188 0.0625 0.031 0.02 0.086 0.091 0.094 0.125 0.008 0.028 0.012 0.1575 0 0.1875-0.031 0.08-0.127 0.0635-0.219 0.0625h-0.063c-0.154-0.01-0.305-0.0798-0.3745 0.0312 0.0049 0.085 0.019 0.1448 0 0.2188-0.014 0.054-0.0967 0.1096-0.0937 0.1562 0.001 0.024 0.0565 0.0598 0.0624 0.0938 0.0039 0.018-0.008 0.0455 0 0.0625 0.0261 0.049 0.0791-0.01 0.1248 0 0.044 0.01 0.094 0.0758 0.094 0.125 0 0.035-0.009 0.0911-0.031 0.125-0.044 0.066-0.1248 0.0577-0.1878 0.0937-0.0519 0.03-0.0627 0.1047-0.0937 0.1563-0.033 0.056-0.0755 0.0761-0.0625 0.1563-0.045 0.089-0.0945 0.1444-0.1875 0.1874-0.027 0.012-0.0688 0.0133-0.0937 0.0313-0.0201 0.014-0.0345 0.0617-0.0626 0.0937-0.0349 0.039-0.0747 0.0638-0.0937 0.0938-0.014 0.023-0.0163 0.0618-0.0313 0.0938-0.022 0.042-0.0657 0.0515-0.0937 0.0937-0.013 0.02-0.0173 0.0677-0.0313 0.0937-0.032 0.058-0.0685 0.1053-0.0624 0.1563 0.0049 0.048 0.0595 0.0497 0.0624 0.0937 0.0028 0.024-0.0322 0.0356-0.0312 0.0626 0.0011 0.038 0.0283 0.0637 0.0312 0.0937 0.007 0.074-0.0485 0.1057-0.0624 0.1563-0.007 0.024 0.006 0.0424 0 0.0624-0.012 0.037-0.0615 0.0808-0.0626 0.125-0.001 0.031 0.0596 0.0498 0.0626 0.0938 0.0022 0.029-0.0373 0.0658-0.0313 0.0938 0.011 0.054 0.1143 0.1142 0.1563 0.1562 0.0569 0.057 0.1312 0.0962 0.1562 0.1562 0.021 0.051 0.0235 0.1494 0.0625 0.1876 0.029 0.028 0.088 0.0324 0.125 0.0624 0.035 0.027 0.0568 0.0326 0.0937 0.0626 0.061 0.048 0.1531 0.1632 0.25 0.1562 0.051-0.01 0.0998-0.0525 0.1558-0.0625 0.06-0.01 0.128-0.0363 0.188-0.0313 0.046 0.01 0.108 0.0343 0.156 0.0313 0.05-0.01 0.1-0.0063 0.156-0.0313 0.1-0.043 0.263-0.1144 0.407-0.0937 0.11 0.016 0.11 0.1385 0.187 0.1875 0.088 0.01 0.149-0.017 0.219 0 0.053 0.013 0.12 0.0834 0.125 0.125 0.005 0.043-0.057 0.0978-0.062 0.125-0.014 0.058 0.009 0.1192 0 0.1562-0.008 0.029-0.033 0.0648-0.032 0.0938 0 0.026 0.036 0.0908 0.063 0.125 0.033 0.042 0.085 0.0798 0.125 0.125 0.073 0.084 0.105 0.1702 0.156 0.2812 0.013 0.028-0.012 0.0578 0 0.0938-0.022 0.1679-0.078 0.2828-0.188 0.4688-0.051 0.0602-0.126 0.1122-0.124 0.1872-0.004 0.18 0.101 0.295 0.093 0.469-0.018 0.234 0.018 0.25 0 0.375 0.079 0.04 0.023 0.167 0 0.25-0.034 0.099-0.075 0.122-0.093 0.188 0.053 0.023 0.128 0.013 0.187 0-0.03 0.031-0.063 0.063-0.094 0.093-0.226 0.226-0.484 0.446-0.75 0.625-0.516 0.349-1.0898 0.614-1.7185 0.75-0.3435 0.075-0.6966 0.094-1.0625 0.094-0.1903 0-0.3781-0.01-0.5625-0.031-0.1469-0.017-0.2948-0.034-0.4375-0.063-0.2832-0.058-0.549-0.177-0.8125-0.281-0.0094-0.017-0.0334-0.042-0.0313-0.063 0.052-0.022 0.1496 0.074 0.1876 0 0.019-0.034-0.0251-0.121 0-0.156 0.0179-0.024 0.1192-0.024 0.1562-0.031 0.053-0.01 0.1263-0.017 0.1562-0.031 0.033-0.021 0.0686-0.095 0.0626-0.156-0.0028-0.03-0.0396-0.037-0.0626-0.063-0.0189-0.022 0.013-0.041 0-0.063-0.0239-0.034-0.0837-0.042-0.0937-0.093 0.072-0.014 0.1773 0.06 0.2813 0.031 0.049-0.014 0.1332-0.11 0.1562-0.156 0.007-0.014-0.008-0.045 0-0.063 0.009-0.018 0.0282-0.052 0.0312-0.062 0.007-0.027-0.006-0.013 0-0.031 0.018-0.052 0.0638-0.089 0.0938-0.126 0.023-0.028 0.0727-0.064 0.0938-0.093 0.0239-0.031 0.0152-0.035 0.0312-0.063 0.015-0.091-0.0532-0.17-0.0312-0.25 0.0239-0.09 0.163-0.146 0.25-0.187 0.0299-0.014 0.0687-0.023 0.0937-0.031 0.06-0.022 0.1315-0.043 0.1875-0.063 0.094-0.034 0.1102-0.102 0.1562-0.187 0.022-0.04 0.0585-0.096 0.0626-0.126 0.0038-0.026-0.005-0.031 0-0.062 0.0049-0.029-0.008-0.06 0-0.094 0.011-0.043 0.0312-0.139 0.0312-0.187 0-0.04-0.0303-0.058-0.0312-0.094-0.007-0.13 0.0457-0.117 0.0937-0.1875 0.024-0.035 0.0456-0.0999 0.0625-0.125 0.081-0.12 0.2287-0.1617 0.2188-0.3437-0.0039-0.06-0.0498-0.1998-0.0938-0.2188-0.025-0.011-0.0568-0.0182-0.0938-0.0312-0.1179-0.044-0.2207-0.1776-0.3437-0.1876h-0.0625c-0.048 0-0.1023-0.0242-0.1562-0.0312-0.034-0.01-0.1051 0.01-0.125 0-0.0311-0.015-0.0376-0.0768-0.0626-0.0938-0.02-0.014-0.0627-0.0202-0.0937-0.0312-0.049-0.018-0.068-0.0585-0.125-0.0625-0.018 0-0.0425 0.01-0.0625 0-0.031-0.01-0.0648-0.0133-0.0938-0.0313-0.0359-0.022-0.0787-0.0314-0.0937-0.0624 0.033-0.108-0.0717-0.1246-0.0937-0.1876-0.0101-0.029 0.01-0.099 0-0.125-0.013-0.037-0.0528-0.0627-0.0938-0.0937-0.072-0.056-0.1158-0.0809-0.2188-0.0937-0.0459-0.01-0.1012 0.01-0.1562 0-0.058-0.01-0.1435-0.0438-0.1875-0.0938-0.042-0.049-0.0568-0.1019-0.0937-0.125-0.035-0.022-0.0698-0.0395-0.0938-0.0625-0.011-0.01-0.0212-0.0083-0.0312-0.0313-0.018-0.037-0.0533-0.0487-0.0313-0.0937-0.04-0.02-0.0195 0.0383-0.0625 0.0313-0.039-0.055-0.0683-0.1098-0.1562-0.0938-0.04 0.01-0.0781 0.0928-0.125 0.0938-0.039 0-0.0741-0.0858-0.125-0.0938-0.039-0.01-0.0981 0.0362-0.125 0.0312-0.0431-0.01-0.0548-0.0364-0.0938-0.0624-0.029-0.019-0.0778-0.0636-0.0938-0.0626-0.0499 0-0.0872 0.099-0.1562 0.0626-0.034-0.043 0.0713-0.0538 0.0312-0.0938-0.0299-0.029-0.0384 0.0172-0.0624 0.0312-0.028 0.018-0.0628 0.0203-0.0938 0.0313-0.069 0.026-0.1335 0.0335-0.1875 0.0625-0.05 0.026-0.0648 0.0424-0.0937 0.0938-0.023 0.042-0.0588 0.123-0.0938 0.125-0.042 0-0.0558-0.0456-0.0938-0.0626-0.1149-0.05-0.1862 0.0293-0.2812 0.0313-0.088 0-0.2227-0.1357-0.2188-0.2187 0.0028-0.051 0.0253-0.1246 0.0313-0.1876 0.0049-0.05 0.0616-0.1106 0.0625-0.1562 0.0011-0.062-0.1163-0.0866-0.1562-0.0938-0.094-0.017-0.2056 0.042-0.3126 0-0.02-0.034 0.0193-0.0597 0.0313-0.0937 0.007-0.018-0.007-0.0415 0-0.0625 0.012-0.032 0.0788-0.0598 0.0937-0.0938 0.011-0.026-0.011-0.0607 0-0.0937 0.013-0.036 0.0595-0.0677 0.0626-0.0937 0.0038-0.034-0.0356-0.0718-0.0626-0.0938-0.0829 0.01-0.1395 0.0072-0.1874 0.0312-0.108 0.049-0.0786 0.1848-0.1876 0.2188-0.037 0.012-0.083 0.0242-0.125 0.0312-0.0183 0.01-0.0419-0.002-0.0624 0 0.0019-0.0101-0.0021-0.0211 0-0.0312 0.0046-0.0228 0.0262-0.0398 0.0312-0.0625 0.0713-0.325 0.1814-0.6396 0.3125-0.9375h0.0313c0.038 0.01 0.0607 0.0595 0.0937 0.0625 0.092 0.01 0.1115-0.0848 0.1875-0.125 0.078 0.011 0.1165-0.01 0.1875 0 0.048 0.01 0.1183 0.0585 0.1563 0.0625 0.032 0 0.0324-0.0352 0.0624-0.0312 0.03 0.01 0.0888 0.0577 0.0938 0.0937 0.005 0.045-0.0443 0.1067-0.0312 0.1563 0.047 0.048 0.1517 0.0657 0.2187 0.0937 0.044-0.037 0.007-0.1043 0-0.1563-0.0011-0.023 0.0027-0.0727 0-0.0937-0.0049-0.036-0.0313-0.0627-0.0313-0.0937 0-0.143 0.1228-0.1942 0.2188-0.25 0.041-0.024 0.089-0.0758 0.125-0.0938 0.051-0.025 0.083-0.0072 0.125-0.0312 0.076-0.043 0.1285-0.1076 0.1875-0.1563 0.027-0.065-0.0027-0.1547 0-0.2187 0.027-0.017 0.0648 0 0.0937 0 0.046-0.01 0.0678-0.0678 0.0938-0.0938 0.015-0.015 0.0445-0.0162 0.0625-0.0312 0.046-0.036 0.0537-0.0778 0.0937-0.0938 0.0141-0.01 0.0405-0.0242 0.0626-0.0312 0.03-0.01 0.077-0.0133 0.125-0.0313 0.031-0.011 0.1129-0.0183 0.125-0.0313 0.015-0.015-0.0039-0.0707 0-0.0937 0.0239-0.1129 0.1802-0.1181 0.2812-0.1563 0.07-0.026 0.1408-0.1077 0.2188-0.0937-0.0151 0.054-0.0756 0.0599-0.0626 0.125 0.017 0.091 0.1243-0.0183 0.1563-0.0313 0.061-0.026 0.17-0.0637 0.25-0.0937 0.07-0.025 0.191-0.0444 0.125-0.125-0.055-0.01-0.077 0.0425-0.125 0.0625-0.033 0.01-0.0345-0.0282-0.0625-0.0312-0.027 0-0.0355 0.0362-0.0625 0.0312-0.027-0.01-0.0585-0.0608-0.0625-0.0938-0.011-0.084 0.0598-0.0943 0.0938-0.1562-0.023-0.076-0.1236-0.0325-0.1876-0.0625 0.007-0.045 0.0408-0.0837 0.0938-0.0937 0.043-0.01 0.1615 0.0082 0.1875 0.0312 0.015 0.013-0.0229 0.0415 0 0.0625 0.026 0.023 0.0598 0.01 0.0937 0 0.012-0.057-0.0724-0.0255-0.0624-0.0625 0.0679-0.044 0.1982-0.0202 0.2812-0.0312 0.048-0.01 0.1133-0.0396 0.1562-0.0626 0.04-0.023 0.0518-0.0692 0.0938-0.0312 0.012 0.041-0.0083 0.0718-0.0312 0.0938-0.077 0.068-0.1588 0.1398-0.2188 0.2187 0.037 0.036 0.0943 0.0243 0.1562 0.0313 0.024 0.01 0.0688-0.005 0.0938 0 0.03 0.01 0.0697-0.01 0.0938 0 0.042 0.01 0.0517 0.0937 0.0937 0.0937 0.068 0 0.039-0.0798 0-0.125 0.012-0.047 0.0483-0.0918 0.0313-0.125-0.0311-0.062-0.1503 0.0185-0.1563-0.0625-0.0039-0.05 0.0445-0.0558 0.0625-0.0938-0.008-0.096 0.0725-0.1004 0.0625-0.1874-0.0049-0.036-0.0375-0.0286-0.0625-0.0626-0.013-0.018-0.0163-0.0797-0.0312-0.0937-0.052-0.044-0.1503-0.0095-0.1563-0.0937-0.0027-0.05 0.007-0.1027 0-0.1563-0.007-0.051-0.0498-0.2087-0.0937-0.2187-0.056-0.012-0.0893 0.0936-0.1563 0.125-0.036 0.017-0.1193 0.0372-0.1563 0.0312-0.0239-0.01-0.0594-0.0155-0.0624-0.0625-0.004-0.0424 0.0468-0.0613 0.0624-0.0937 0.004-0.0082-0.0019-0.0201 0-0.0313 0.0726-0.0202 0.145-0.0452 0.2188-0.0625 0.0419-0.0097 0.0827-0.0226 0.125-0.0312 0.0299-0.0063 0.0637 0.0057 0.0938 0 0.1335-0.0248 0.2691-0.0486 0.4062-0.0626 0.1662-0.0174 0.3289-0.0312 0.5-0.0312zm-2.0312 0.4688c-0.0319 0.1825-0.2028 0.2552-0.4063 0.25-0.046 0.044-0.0063 0.1264-0.0313 0.1874-0.021 0.051-0.1052 0.0978-0.1562 0.0938-0.037 0-0.0938-0.0588-0.0938-0.0938 0-0.043 0.0683-0.0445 0.0313-0.0937 0.0017-0.01 0.0209-0.0213 0.0313-0.0313 0.0202-0.0127 0.0421-0.0187 0.0624-0.0312 0.1813-0.1115 0.367-0.1932 0.5626-0.2812zm4.1872 0.1874c-0.018 0.01-0.015 0.0213-0.031 0.0313-0.038 0.023-0.065 0.0515-0.094 0.0625-0.0407 0.015-0.0875 0.0255-0.0935 0.0625-0.0049 0.031 0.0323 0.0335 0.0313 0.0625-0.0151 0.037-0.0233 0.0488-0.0313 0.0938 0.051 0.083 0.1555-0.0183 0.2185-0.0313 0.028-0.01 0.048-0.0073 0.063-0.0313 0.017-0.027 0.018-0.0555 0.031-0.0937 0.014-0.042 0.068-0.0567 0.062-0.0937-0.003-0.037-0.094-0.0676-0.156-0.0626zm-5.4685 0.625c0.0474 0.0381 0.1141 0.1206 0.0313 0.1563-0.0101 0.01-0.1323 0.0353-0.1563 0.0313-0.0097 0-0.0228-0.024-0.0313-0.0313 0.0517-0.0503 0.1025-0.1082 0.1563-0.1563zm0.1875 0.1876c0.024 0 0.0345 0.0604 0.0625 0.0624 0.027 0 0.0465-0.0352 0.0625-0.0312 0.042 0.011 0.0713 0.0938 0.0312 0.125-0.033 0.01-0.0385-0.0352-0.0624-0.0312-0.068 0.012-0.1053 0.1602-0.1563 0.1562-0.048-0.01-0.0803-0.1212-0.0313-0.1562 0.0012-0.03-0.002-0.0316 0-0.0626 0.0151-0.018 0.0538-0.0654 0.0938-0.0624zm-0.25 0.0312c0.014 0 0.0262-0.01 0.0312 0-0.0069 0.053-0.0215 0.0688-0.0624 0.0938-0.071 0.043-0.1333 0.096-0.1563 0.1874-0.007 0.027-0.091 0.1005-0.125 0.0938-0.079-0.017 0.0445-0.1646 0.0625-0.1875 0.02-0.025 0.0395-0.0335 0.0625-0.0625 0.023-0.028 0.0406-0.0778 0.0625-0.0938 0.024-0.017 0.083-0.0332 0.125-0.0312zm6.781 0.1562c0.079-0.01 0.121 0.0774 0.156 0.125 0.03 0.039 0.108 0.0978 0.157 0.125 0.028 0.015 0.063 0.0486 0.093 0.0626 0.065 0.029 0.185 0.1234 0.188 0.1874 0.001 0.032-0.036 0.0638-0.031 0.0938 0.049 0.01 0.093-0.0758 0.093-0.125 0.092 0.13 0.171 0.2677 0.25 0.4062 0.038 0.0655 0.091 0.1201 0.126 0.1876-0.045 0.013-0.056 0.0194-0.063 0.0624-0.01 0.056 0.021 0.1464-0.063 0.1563-0.052 0.01-0.114-0.0455-0.187-0.0625-0.03-0.01-0.07 0.01-0.094 0-0.055-0.018-0.047-0.0917-0.093-0.125-0.028-0.019-0.114-0.0575-0.157-0.0625-0.027 0-0.034 0.01-0.062 0-0.034-0.01-0.097 0.014-0.125 0-0.027-0.017-0.087-0.0707-0.094-0.0937-0.011-0.037 0.092-0.0625 0.094-0.0938 0.002-0.024-0.026-0.0568-0.032-0.0938-0.003-0.022 0.005-0.0474 0-0.0624-0.006-0.026-0.052-0.0303-0.093-0.0313h-0.094c-0.044 0-0.133-0.004-0.187 0-0.034 0-0.063-0.003-0.094 0-0.087 0.01-0.151-0.01-0.219 0-0.049 0-0.142 0.0415-0.187 0.0625-0.023 0.011-0.033 0.0162-0.063 0.0312-0.014 0.01-0.044 0.0233-0.063 0.0313-0.027 0.013-0.066 0.0545-0.093 0.0625-0.039 0.01-0.086-0.01-0.157 0-0.05 0-0.123-0.0328-0.124-0.0938-0.002-0.093 0.162-0.0454 0.25-0.0624 0.032-0.01 0.053-0.0386 0.093-0.0626 0.019-0.011 0.014-0.0192 0.031-0.0312 0.03-0.021 0.089-0.0698 0.094-0.0938 0.004-0.022-0.003-0.0454 0-0.0624 0.004-0.021 0.036-0.0346 0.063-0.0626 0.042-0.042 0.073-0.0978 0.125-0.125 0.035-0.018 0.078-0.0334 0.094-0.0624 0.003-0.032-0.002-0.0326 0-0.0626 0.022-0.02 0.044-0.0272 0.062-0.0312 0.054-0.012 0.093 0.003 0.156 0 0.027 0 0.065 0.013 0.094 0 0.024-0.016 0.038-0.0505 0.062-0.0625 0.027-0.014 0.062-0.0293 0.094-0.0313zm0.563 0.5938h-0.125c-0.044 0-0.099-0.023-0.125 0 0.037 0.06 0.104 0.0788 0.187 0.0938 0.03-0.022 0.049-0.0555 0.063-0.0938zm-6.844-0.5625h0.0938c0.025 0 0.0525-0.01 0.0624 0-0.016 0.066-0.1667 0.0553-0.2187 0.0313 0.0027-0.025 0.0305-0.0273 0.0625-0.0313zm-0.2188 0.125c-0.0436 0.0318-0.0869 0.0721-0.1562 0.0937-0.038 0.012-0.0867 0.0108-0.0938-0.0312-0.008-0.052 0.0598-0.0262 0.0938-0.0312 0.044-0.01 0.1053-0.0293 0.1562-0.0313zm6.4998 0c-0.033 0.011-0.049 0.0837 0 0.0937 0.023-0.014 0.038-0.0507 0.032-0.0937-0.013-0.014-0.022-0.01-0.032 0zm-0.062 0.1563c0.001 0.056 0.011 0.1076 0 0.1562 0.032 0.062 0.109 0.0108 0.125-0.0312 0.019-0.104-0.015-0.138-0.063-0.125-0.016 0.01-0.045-0.013-0.062 0zm-8.2815 2.3437c0.0564 0.051 0.0888 0.1229 0.1563 0.1563 0.025 0.013 0.0617 0.0232 0.0937 0.0312 0.026 0.01 0.0375-0.008 0.0625 0 0.053 0.018 0.1143 0.0435 0.1562 0.0625 0.064 0.028 0.1326 0.1243 0.1876 0.1563 0.0027 0.032-0.0101 0.0697 0 0.0937 0.026 0.035 0.0517 0.0697 0.0937 0.0937 0.051 0.028 0.077 0.0716 0.125 0.0938 0.017 0.01 0.0365-0.01 0.0625 0 0.066 0.02 0.0993 0.1106 0.1562 0.0938 0.0371-0.011 0.0253-0.0578 0.0313-0.0938 0.025-0.027 0.0547-0.0625 0.0937-0.0625 0.062 0 0.0708 0.0957 0.0938 0.1563 0.013 0.034 0.0535 0.0577 0.0625 0.0937 0.015 0.062 0.013 0.2443 0 0.2813-0.016 0.046-0.087 0.0434-0.125 0.0937-0.018 0.024-0.0173 0.0767-0.0313 0.0937-0.0239 0.029-0.0444 0.0346-0.0624 0.0626-0.0101 0.015-0.0223 0.0414-0.0313 0.0624-0.03 0.064-0.0875 0.1106-0.0625 0.1876 0.01 0.031 0.0625 0.0567 0.0625 0.0937 0 0.044-0.0867 0.0768-0.0937 0.125-0.005 0.035 0.0203 0.0783 0.0312 0.125 0.008 0.035 0.0728 0.0707 0.0938 0.0937 0.0349 0.039 0.0617 0.1068 0.0937 0.1563 0.063 0.097 0.0943 0.2175 0.1563 0.3125 0.033 0.049 0.103 0.0734 0.125 0.125 0.011 0.026-0.0101 0.07 0 0.094 0.0359 0.081 0.2002 0.179 0.2812 0.218 0.038 0.02 0.09 0.012 0.125 0.032 0.053 0.03 0.1605 0.109 0.1875 0.156 0.024 0.042 0.0193 0.152 0.0313 0.219 0.015 0.088-0.0039 0.155 0 0.25 0.0027 0.052 0.0312 0.073 0.0312 0.125 0 0.018 0.0011 0.074 0 0.094-0.0011 0.062 0.005 0.124 0 0.187-0.0028 0.034-0.0022 0.065 0 0.094 0.0028 0.031 0.0293 0.034 0.0312 0.062 0.0022 0.029-0.0342 0.071-0.0312 0.094 0.007 0.063 0.0505 0.098 0.0625 0.156 0.01 0.046 0.0372 0.164 0.0313 0.219-0.0039 0.029-0.0273 0.061-0.0313 0.094-0.0027 0.026 0.0039 0.038 0 0.062-0.0027 0.023 0.0059 0.044 0 0.063-0.0318-0.021-0.0624-0.042-0.0937-0.063-0.2661-0.179-0.5238-0.399-0.75-0.625-0.0306-0.03-0.064-0.062-0.0938-0.093-0.1806-0.191-0.3509-0.409-0.5-0.626-0.0135-0.019-0.018-0.042-0.0312-0.062-0.1731-0.259-0.3147-0.522-0.4376-0.8125-0.0088-0.0209-0.0226-0.0414-0.0312-0.0625-0.1054-0.259-0.1889-0.534-0.25-0.8125-0.0115-0.0526-0.0214-0.1031-0.0312-0.1563-0.0248-0.1335-0.0486-0.2691-0.0626-0.4062-0.017-0.1681-0.0312-0.3274-0.0312-0.5 0-0.2376 0.0304-0.4587 0.0625-0.6875zm1.9375 0.5313c0.048-0.022 0.039 0.0554 0 0.0624-0.037 0.01-0.036-0.0444 0-0.0624z" transform="translate(0 1036.4)" fill="#4d4d4d"/>
 </g>
</svg>
